<svg id="Capa_1" data-name="Capa 1" xmlns="http://www.w3.org/2000/svg" viewBox="0 0 139.98 139.98"><defs><style>.cls-1{opacity:0.4;}.cls-2{fill:#aacd75;}.cls-3{fill:#1c1d1b;}.cls-4{fill:#f6f6f6;}.cls-5{fill:#b41d23;}</style></defs><g class="cls-1"><path class="cls-2" d="M18.45,104.93c-7.61-12.64-7.74-28.15-7.16-41.53C12.18,43,19.1,25.57,37.23,15.21c15.07-8.47,33.4-5.84,49.59-.91S117,26.33,126.29,42c18.46,31,.91,59.08-23.19,83.11C79,149.83,37.51,136.64,18.45,104.93Z"/></g><path class="cls-3" d="M93.58,38.49c5.11,6.24,2.83,19.07-.16,25.78C89.52,73,81.64,79.73,71.67,79.91H71c2.27,3.79,2.1,9.87,1.94,13.79-.09,2.31.17,6.54-.64,9.66,2.69-.21,5.89-.55,7.91,1.13a2,2,0,0,1,0,2.88c-2.37,2-6.42,1.18-9.31,1-4.27-.21-8.57-.24-12.8-.79a1.67,1.67,0,0,1,0-3.34c2.93-.39,5.91-.53,8.88-.65-.27-3.15.89-7.24,1-9.91.16-4.65-.61-9.45-.38-14C49.33,77,42.54,54.7,48.74,38.27a1.81,1.81,0,0,1,2.58-.84.76.76,0,0,1,.47-.39c2.68-.63,5.62.44,8.35.62,4.33.29,8.66.48,13,.52,5.28.06,13.22-1.56,18.41.32A1.32,1.32,0,0,1,93.58,38.49ZM90.34,59.57a35.06,35.06,0,0,0,1.45-11.65c-.1-1.82-.52-3.64-.71-5.46-2.7.77-5.78.37-8.54.37-4.42,0-8.87.08-13.28-.21s-13.8.1-17.39-3.67c-1.24,13.41-1.13,36.77,18,36.45A20.93,20.93,0,0,0,90.34,59.57Z"/><path class="cls-4" d="M91.79,47.92a35.06,35.06,0,0,1-1.45,11.65A20.93,20.93,0,0,1,69.88,75.4c-19.14.32-19.25-23-18-36.45,3.59,3.77,12.86,3.38,17.39,3.67s8.86.21,13.28.21c2.76,0,5.84.4,8.54-.37C91.27,44.28,91.69,46.1,91.79,47.92Zm-3.62,7.16a1.5,1.5,0,0,0-1.91-1.58,2.23,2.23,0,0,0-1.5-.62c-9.33-.28-17.87-1.72-26.18-6a1.75,1.75,0,0,0-2.38-.42c-7.4,4.41-.69,16.66,3.28,20.94a16.62,16.62,0,0,0,7.33,4.64c.29.17.58.35.89.5C76.32,77,82.48,70.28,85.63,63A16.12,16.12,0,0,0,88.17,55.08Z"/><path class="cls-5" d="M86.26,53.5a1.5,1.5,0,0,1,1.91,1.58A16.12,16.12,0,0,1,85.63,63C82.48,70.28,76.32,77,67.7,72.57c-.31-.15-.6-.33-.89-.5a16.62,16.62,0,0,1-7.33-4.64c-4-4.28-10.68-16.53-3.28-20.94a1.75,1.75,0,0,1,2.38.42c8.31,4.25,16.85,5.69,26.18,6A2.23,2.23,0,0,1,86.26,53.5Z"/></svg>