<svg id="Capa_1" data-name="Capa 1" xmlns="http://www.w3.org/2000/svg" viewBox="0 0 139.98 139.98"><defs><style>.cls-1{opacity:0.4;}.cls-2{fill:#b1dde6;}.cls-3{fill:#1c1d1b;}.cls-4{fill:#e8472b;}.cls-5{fill:#f6f6f6;}</style></defs><g class="cls-1"><path class="cls-2" d="M113,122c-10.62,8.53-25.2,9.73-37.91,10.08-19.44.55-37.26-5.19-51-22.78C12.66,94.62,11.12,75.82,12.32,59s5.23-31.53,18.81-42.14C58.52-4.07,90.12,12,118.25,35S140,100.67,113,122Z"/></g><path class="cls-3" d="M114.74,73.16c3.29,29-29.62,36.83-51.91,30.13-12.36-3.7-22.89-10.6-28.11-22.76-4.8-11.14-4.28-24.61-.81-36a.8.8,0,0,1,.29-.4A18,18,0,0,1,41.43,36c8-5,17.79-6.16,25.79-.69,7.32,5,10.71,13.92,18.44,18.41a2.11,2.11,0,0,1,1-.74c9.6-3.58,22.58-1.56,27,9a18.72,18.72,0,0,1,1,11A1.27,1.27,0,0,0,114.74,73.16Zm-4.66-.61C112.83,58.87,99,53.13,87.83,57.17a1.8,1.8,0,0,1-2.36-.89.82.82,0,0,1-.27,0C73.26,52.8,69.33,34.65,55.5,35.61,35.44,37,33.19,56.48,43,70.52c9.23,13.16,27.49,18.81,43.13,17.61C95.64,87.42,107.9,83.33,110.08,72.55Zm.5,9.28a22.89,22.89,0,0,1-7,6.08c-16.59,9.31-44.8,5.59-58.41-8a47.19,47.19,0,0,1-10.43-16.6,43.37,43.37,0,0,0,2.64,14.48c4.24,10.88,13.38,18.07,24.48,21.3C80.33,104.42,105.55,101.53,110.58,81.83Z"/><path class="cls-4" d="M87.83,57.17c11.16-4,25,1.7,22.25,15.38C107.9,83.33,95.64,87.42,86.16,88.13,70.52,89.33,52.26,83.68,43,70.52,33.19,56.48,35.44,37,55.5,35.61c13.83-1,17.76,17.19,29.7,20.66a.82.82,0,0,0,.27,0A1.8,1.8,0,0,0,87.83,57.17ZM58.45,67.28A8.7,8.7,0,0,0,68.32,57c-.81-4.25-3.8-7.5-7.33-9.79a14.76,14.76,0,0,0-7.48-2.46c0-.52-.35-1-.94-.78-5.63,2.26-9,7.16-6.72,13.18A16.89,16.89,0,0,0,58.45,67.28Z"/><path class="cls-5" d="M103.61,87.91a22.89,22.89,0,0,0,7-6.08c-5,19.7-30.25,22.59-48.69,17.24-11.1-3.23-20.24-10.42-24.48-21.3a43.37,43.37,0,0,1-2.64-14.48A47.19,47.19,0,0,0,45.2,79.89C58.81,93.5,87,97.22,103.61,87.91Z"/><path class="cls-3" d="M68.32,57a8.7,8.7,0,0,1-9.87,10.29,16.89,16.89,0,0,1-12.6-10.14c-2.31-6,1.09-10.92,6.72-13.18.59-.25,1,.26.94.78A14.76,14.76,0,0,1,61,47.2C64.52,49.49,67.51,52.74,68.32,57ZM57.64,63.62c3.76,1,7.85-1,7.36-5.49-.71-6.66-8.12-10.15-14-10.58l-.23-.06c-2.2,2.4-3.39,5.49-1.71,8.78A14.27,14.27,0,0,0,57.64,63.62Z"/><path class="cls-5" d="M65,58.13c.49,4.51-3.6,6.52-7.36,5.49a14.27,14.27,0,0,1-8.53-7.35c-1.68-3.29-.49-6.38,1.71-8.78l.23.06C56.88,48,64.29,51.47,65,58.13Zm-5,1.58c.34-2.08.42-4.18-1.08-5.83a11.08,11.08,0,0,0-5-2.57c-1-.26-2.08,1.12-1.27,1.93a9.74,9.74,0,0,0,.29,5c.93,2.13,3.85,2.36,5.83,2.4A1.24,1.24,0,0,0,60,59.71Z"/><path class="cls-3" d="M58.93,53.88c1.5,1.65,1.42,3.75,1.08,5.83a1.24,1.24,0,0,1-1.2.93c-2,0-4.9-.27-5.83-2.4a9.74,9.74,0,0,1-.29-5c-.81-.81.23-2.19,1.27-1.93A11.08,11.08,0,0,1,58.93,53.88ZM57.7,58.12a2.76,2.76,0,0,0-1.08-2.77,15.35,15.35,0,0,0-2-1A8.07,8.07,0,0,0,55,57C55.36,57.9,56.62,58.09,57.7,58.12Z"/></svg>