<svg id="Capa_1" data-name="Capa 1" xmlns="http://www.w3.org/2000/svg" viewBox="0 0 139.98 139.98"><defs><style>.cls-1{opacity:0.4;}.cls-2{fill:#2e6649;}.cls-3{fill:#1c1d1b;}.cls-4{fill:#f5cae0;}.cls-5{fill:#663c13;}</style></defs><g class="cls-1"><path class="cls-2" d="M75.34,136.44c-13.7,0-26.4-8.33-37.12-16.19C21.75,108.14,10.2,92.18,9,70,8,51.64,17.85,36.74,28.9,25.16s23.43-19.71,41.33-19C106,7.64,122.5,38.46,131.66,72.53,140.81,106.89,110,136.44,75.34,136.44Z"/></g><path class="cls-3" d="M112.52,66c1.44,8.3-2.73,17-9.13,22.32-15.1,12.51-38.71,11.84-55.95,4.34-14-6.07-26.33-20.58-17-34.65a1.57,1.57,0,0,1-.12-1.31c1.36-4.53,4.92-7.68,9.08-9.73,16.64-8.21,40.92-5.49,57.2,2.37C103.32,52.57,111.13,58,112.52,66ZM108,70.86c1-13.5-17.64-20.48-30.06-22.65-9.11-1.59-18.88-2.11-28-.3C44.66,49,37.8,50.55,34.78,55.46a1,1,0,0,1-.1.51,34.67,34.67,0,0,0-3.15,9c-.31,4,.41,7.83,4,8.45a49,49,0,0,0,5.55.22,18,18,0,0,1,9,2.75c3.84,2.48,7.24,5.63,11.17,8C68.93,88.87,73.41,86,78.7,79.7c0,0,.06,0,.09-.08,2.92-3.12,6.44-4.14,11-3.79,2.89.23,5.74,1.16,8.66,1C103.13,76.69,105.3,74.06,108,70.86Zm-2.43,7.6c.14-.25.23-.48.35-.72A12.09,12.09,0,0,1,98.41,80c-6.27-.23-12.83-3.22-18.11.94C77.58,86,72.31,91.15,66,89.28,58.74,87.14,54.05,81,47.37,77.89c-4.64-2.14-10.61-.17-14.77-3a15.92,15.92,0,0,0,2.29,3.59c5.4,6.4,13.3,10.33,21.3,12.45C72,95.16,96.54,95.08,105.61,78.46Z"/><path class="cls-4" d="M78,48.21C90.4,50.38,109.07,57.36,108,70.86c-2.74,3.2-4.91,5.83-9.63,6-2.92.11-5.77-.82-8.66-1-4.52-.35-8,.67-11,3.79,0,0-.06,0-.09.08-5.29,6.31-9.77,9.17-17.46,4.63-3.93-2.32-7.33-5.47-11.17-8a18,18,0,0,0-9-2.75,49,49,0,0,1-5.55-.22c-3.61-.62-4.33-4.46-4-8.45a34.67,34.67,0,0,1,3.15-9,1,1,0,0,0,.1-.51c3-4.91,9.88-6.5,15.19-7.55C59.1,46.1,68.87,46.62,78,48.21Zm23.18,18.43a4.5,4.5,0,0,0-1.1-3.44,8.84,8.84,0,0,0-1.25-1,14.49,14.49,0,0,1-1.52-1.4c-.59-.53-1.83,0-1.47.86a5.13,5.13,0,0,0,1.24,1.76c-.68,1.57,1.44,3.33,2.53,4.08A1.06,1.06,0,0,0,101.16,66.64Zm-4.77,4.43a1.15,1.15,0,0,0,0-2,15.33,15.33,0,0,0-2.86-1,11.06,11.06,0,0,0-2.89-.69.88.88,0,0,0-.46.12.54.54,0,0,0-.17-.08c-1.16-.39-1.56,1.35-.49,1.79,1.24.51,2.1,1.58,3.29,2.18A3.56,3.56,0,0,0,96.39,71.07Zm-21.47-2.2c2.72-1.16,6.67-3.7,6.62-7.06,0-3-3.61-4.39-5.91-5.09-.51-.16-1-.3-1.58-.42a1,1,0,0,0-.37-.17c-4.51-1-12.78-2.12-14.08,4.12-1,4.57,3.33,8.47,7.37,9.52A12.26,12.26,0,0,0,74.92,68.87Zm-25.24.26A.9.9,0,0,0,51,68.35a6.38,6.38,0,0,0-1.33-3.59c-.32-.46-.7-.87-1-1.33s-.38-.72-.74-.9a.8.8,0,0,0-.93.12c-.58.47-.29,1.14.09,1.7a15.76,15.76,0,0,0,0,1.82A4.25,4.25,0,0,0,49.68,69.13Zm-.84-10.37A.88.88,0,0,0,49,57.4,8.67,8.67,0,0,0,46,55.66a19.94,19.94,0,0,0-3.58-1c-.69-.1-1,.91-.55,1.34,0,0,0,0,.06.05a.5.5,0,0,0,.2.76c1.16.54,1.46,1.71,2.4,2.46C45.82,60.32,47.55,59.5,48.84,58.76Zm-8.43,7.86a.89.89,0,0,0,1.12-.85,7.66,7.66,0,0,0-.84-3.21,13.52,13.52,0,0,1-.62-1.4,7.28,7.28,0,0,0-.52-1.78.72.72,0,0,0-1.25,0,2.57,2.57,0,0,0-.12,1.95,12.63,12.63,0,0,0-.81,2.82C37.29,65.75,39.19,66.35,40.41,66.62Z"/><path class="cls-5" d="M106,77.74c-.12.24-.21.47-.35.72C96.54,95.08,72,95.16,56.19,91c-8-2.12-15.9-6-21.3-12.45a15.92,15.92,0,0,1-2.29-3.59c4.16,2.81,10.13.84,14.77,3C54.05,81,58.74,87.14,66,89.28,72.31,91.15,77.58,86,80.3,81c5.28-4.16,11.84-1.17,18.11-.94A12.09,12.09,0,0,0,106,77.74Z"/><path class="cls-3" d="M100.06,63.2a4.5,4.5,0,0,1,1.1,3.44,1.06,1.06,0,0,1-1.57.9c-1.09-.75-3.21-2.51-2.53-4.08a5.13,5.13,0,0,1-1.24-1.76c-.36-.89.88-1.39,1.47-.86a14.49,14.49,0,0,0,1.52,1.4A8.84,8.84,0,0,1,100.06,63.2Z"/><path class="cls-3" d="M96.39,69.09a1.15,1.15,0,0,1,0,2,3.56,3.56,0,0,1-3.58.36c-1.19-.6-2-1.67-3.29-2.18-1.07-.44-.67-2.18.49-1.79a.54.54,0,0,1,.17.08.88.88,0,0,1,.46-.12,11.06,11.06,0,0,1,2.89.69A15.33,15.33,0,0,1,96.39,69.09Z"/><path class="cls-3" d="M81.54,61.81c0,3.36-3.9,5.9-6.62,7.06a12.26,12.26,0,0,1-8,.9c-4-1-8.32-5-7.37-9.52,1.3-6.24,9.57-5.16,14.08-4.12a1,1,0,0,1,.37.17c.54.12,1.07.26,1.58.42C77.93,57.42,81.51,58.86,81.54,61.81Zm-8.1,4.52c1.25-.59,5.76-2.73,5.11-4.63C78,60,74.77,59.28,73.22,59a53.29,53.29,0,0,0-7.58-.72h-.08c-1.54.43-2.73,1.28-3,2.84-.44,2.74,2.53,5.19,4.9,5.8A9,9,0,0,0,73.44,66.33Z"/><path class="cls-3" d="M51,68.35a.9.9,0,0,1-1.34.78,4.25,4.25,0,0,1-2.56-3,15.76,15.76,0,0,1,0-1.82c-.38-.56-.67-1.23-.09-1.7a.8.8,0,0,1,.93-.12c.36.18.51.59.74.9s.7.87,1,1.33A6.38,6.38,0,0,1,51,68.35Z"/><path class="cls-3" d="M49,57.4a.88.88,0,0,1-.18,1.36c-1.29.74-3,1.56-4.36.49-.94-.75-1.24-1.92-2.4-2.46a.5.5,0,0,1-.2-.76s-.05,0-.06-.05c-.48-.43-.14-1.44.55-1.34a19.94,19.94,0,0,1,3.58,1A8.67,8.67,0,0,1,49,57.4Z"/><path class="cls-3" d="M41.53,65.77a.89.89,0,0,1-1.12.85c-1.22-.27-3.12-.87-3-2.47a12.63,12.63,0,0,1,.81-2.82,2.57,2.57,0,0,1,.12-1.95.72.72,0,0,1,1.25,0,7.28,7.28,0,0,1,.52,1.78,13.52,13.52,0,0,0,.62,1.4A7.66,7.66,0,0,1,41.53,65.77Z"/></svg>