<svg id="Capa_1" data-name="Capa 1" xmlns="http://www.w3.org/2000/svg" viewBox="0 0 139.98 139.98"><defs><style>.cls-1{opacity:0.4;}.cls-2{fill:#2e6649;}.cls-3{fill:#1c1d1b;}.cls-4{fill:#94b022;}.cls-5{fill:#f1b941;}.cls-6{fill:#663c13;}</style></defs><g class="cls-1"><path class="cls-2" d="M11.65,37.37c5.91-12.57,18.7-19.64,30.18-25.1C59.46,4,78.2,2.33,97.67,13.22c16,8.91,24.51,25.46,29.73,41.26s7.14,30.81-.68,46.29C111.3,132,78.11,131.43,44.6,122.61,10.46,113.46-3.09,69.37,11.65,37.37Z"/></g><path class="cls-3" d="M106.58,57.75c-.88.26-.26-.92-.36-2.09a23.24,23.24,0,0,0-.42-2.88,25.51,25.51,0,0,0-1.28-4.29,23.23,23.23,0,0,0-6-8.43C82,25.49,31.12,27.12,33.17,56.25a2.63,2.63,0,0,1,2.11,1.65c2.31,5.83,15.43,5.78,20.29,5.94a180.1,180.1,0,0,0,28.05-1.41C91,61.53,99.75,60.9,106.58,57.75Zm-77.32-.49C20.79,20.72,112,10.11,111.13,59.43a2.88,2.88,0,0,1-.46,1.41c2.38,3.12,3.91,8.07-1.32,9.6a17.49,17.49,0,0,1-3.56.54c5.43,6.25,4.8,10.4,1.1,13.15,14.31,19.36-27.66,19.23-37.26,19.16-11-.11-24.91,3.85-35.25-.86C30.3,100.57,26.31,96.71,26,92c-.21-2.76.58-5.12,2.46-6.21-3.56-2.66-4.81-6.68-.49-11.11a10.62,10.62,0,0,1,.35-4.24C25,70.31,22,68.7,22.44,64.59A8.8,8.8,0,0,1,29.26,57.26Zm72.81,11.58Q109,71.24,108.8,62c-12.26,5.46-27.6,6.77-41,7.14,2.37,4.34,7.11,5.7,10.84,1.53a1.16,1.16,0,0,1,1.92.5c1.88,7.91,13.41,10.08,14.27.31a1,1,0,0,1,1-1c2.66-.07,3.6-.94,5.78-1.66A.92.92,0,0,1,102.07,68.84ZM73.92,100.11c8.44-.08,39.87.41,30.31-14.47-9.73,4.41-29.48,3.78-35.46,4-11.22.32-23.07,1.52-34.11-1.07a17.38,17.38,0,0,1-3.22-1.07c-5.1,2.51-1,8.18,1.7,10.49a14.07,14.07,0,0,0,8,2.85,88,88,0,0,0,14.25-.08C61.6,100.28,67.7,100.17,73.92,100.11Zm29.9-17.36c4.77-2.92,1.94-7.08-.63-10.53a1.09,1.09,0,0,1-.18-1c-2.94.27-5.62.87-6.63,3.59-3.3,9-14,5.86-17.4-1.16-4.29,3.88-9.28,2.22-11.91-2.39A10.33,10.33,0,0,1,62,78c-3.73,1.74-7.34.72-10.14-2.2a1.28,1.28,0,0,1-.15-.23.74.74,0,0,1-.69.3c-2-.14-3.65,1-5.63,1a4.2,4.2,0,0,1-2.76-1.56c-2.36,3.52-7,5.44-11.06,3.85a5.9,5.9,0,0,1-2.14-1.4c-1.39,3-1.28,5.47,3.13,6.86a46.14,46.14,0,0,0,12.3,1.91c8,.34,16-.18,24-.35,7.16-.15,14.31.34,21.47-.3C94.58,85.49,100,85.09,103.82,82.75ZM65.08,69.22l-.36,0c-8.7.15-26.53,1.28-32.82-7.3a1.76,1.76,0,0,1-1.56-1.18c-.16-.44-.3-.85-.44-1.28a9.12,9.12,0,0,0-4,4.05c-1.49,3.52,1.47,4.27,4.39,4,1.15-.11,1.59,1.22,1.2,2.08-1.35,2.9-1.55,7.52,2.87,7.44,3.21-.06,5.21-1.92,7-4.45a1.23,1.23,0,0,1,2.08,0c2.38,3.55,4.8.77,7.83,1.43a.66.66,0,0,1,.45.29,1.26,1.26,0,0,1,1.89-.25c2.41,2,5.68,3.15,8.25.68A14.66,14.66,0,0,0,65.08,69.22Z"/><path class="cls-4" d="M108.8,62q.17,9.21-6.73,6.82a.92.92,0,0,0-.52,0c-2.18.72-3.12,1.59-5.78,1.66a1,1,0,0,0-1,1c-.86,9.77-12.39,7.6-14.27-.31a1.16,1.16,0,0,0-1.92-.5c-3.73,4.17-8.47,2.81-10.84-1.53C81.2,68.79,96.54,67.48,108.8,62Z"/><path class="cls-5" d="M106.22,55.66c.1,1.17-.52,2.35.36,2.09-6.83,3.15-15.62,3.78-23,4.68a180.1,180.1,0,0,1-28.05,1.41c-4.86-.16-18-.11-20.29-5.94a2.63,2.63,0,0,0-2.11-1.65C31.12,27.12,82,25.49,98.53,40.06a23.23,23.23,0,0,1,6,8.43,25.51,25.51,0,0,1,1.28,4.29A23.24,23.24,0,0,1,106.22,55.66ZM99,52.94a.78.78,0,0,0-.86-1.14c-1.15.37-1.94,1.53-3.21,1.59s-1.2-1.75-1.12-2.56-1.36-.82-1.28,0c.15,1.28.39,3.14,1.77,3.71A4.57,4.57,0,0,0,99,52.94Zm-2.44-8.15c.13-1.87-2.41-3.71-4.16-3.31-2.14.48-2,3.38-1.88,5a.93.93,0,0,0,1.85,0,5.18,5.18,0,0,1,.43-1.95c.11-.2.22-.37.32-.57,0,0,0,0,0,0a2.45,2.45,0,0,1,.52.31c.66.45,1,1.13,1.88,1.29A.82.82,0,0,0,96.58,44.79ZM58.72,43.3a9.12,9.12,0,0,0-.18-3.24,5.36,5.36,0,0,0-1.45-3.12,1.38,1.38,0,0,0-1.62-.2c-1.33.61-2.66,1.56-2.77,3.14-.08,1.11.56,2.09.69,3.19a1,1,0,0,0,2,0,15.43,15.43,0,0,0-.17-2.63c0-.3-.05-.27.09-.43a5.07,5.07,0,0,1,.46-.35,3.51,3.51,0,0,1,.37,1.12c.15,1,.18,2.2,1,2.92A.9.9,0,0,0,58.72,43.3ZM51.93,53c.43-.19.42-.86-.1-.86-1.46,0-4.09.08-4.38,2s1.73,3.11,3.28,3.55c.79.21,1.56-.89.85-1.45l-1.47-1.15a4.64,4.64,0,0,1-.5-.49s0-.06,0-.07a.14.14,0,0,1,0-.11,1,1,0,0,1,.31-.29A11.16,11.16,0,0,1,51.93,53Zm-3.22-10.2c.7-.35.17-1.3-.51-1.2-1.27.2-2.44-.07-3.67.49-1.6.75-1.82,2.92-1.82,4.45a1.35,1.35,0,0,0,.68,1.17,4.67,4.67,0,0,0,2.78.44,10.27,10.27,0,0,0,1.61-.66,1,1,0,0,0,0-1.9c-.78-.16-1.55.07-2.31,0a4.63,4.63,0,0,1,.18-1,1,1,0,0,1,.41-.52C46.8,43.53,47.85,43.19,48.71,42.77Z"/><path class="cls-5" d="M104.23,85.64c9.56,14.88-21.87,14.39-30.31,14.47-6.22.06-12.32.17-18.55.61a88,88,0,0,1-14.25.08,14.07,14.07,0,0,1-8-2.85c-2.72-2.31-6.8-8-1.7-10.49a17.38,17.38,0,0,0,3.22,1.07c11,2.59,22.89,1.39,34.11,1.07C74.75,89.42,94.5,90.05,104.23,85.64Z"/><path class="cls-6" d="M103.19,72.22c2.57,3.45,5.4,7.61.63,10.53-3.84,2.34-9.24,2.74-13.58,3.14-7.16.64-14.31.15-21.47.3-8,.17-16,.69-24,.35a46.14,46.14,0,0,1-12.3-1.91c-4.41-1.39-4.52-3.82-3.13-6.86a5.9,5.9,0,0,0,2.14,1.4c4.08,1.59,8.7-.33,11.06-3.85a4.2,4.2,0,0,0,2.76,1.56c2,.06,3.63-1.12,5.63-1a.74.74,0,0,0,.69-.3,1.28,1.28,0,0,0,.15.23c2.8,2.92,6.41,3.94,10.14,2.2a10.33,10.33,0,0,0,5.12-6.81c2.63,4.61,7.62,6.27,11.91,2.39,3.41,7,14.1,10.14,17.4,1.16,1-2.72,3.69-3.32,6.63-3.59A1.09,1.09,0,0,0,103.19,72.22Z"/><path class="cls-3" d="M98.16,51.8A.78.78,0,0,1,99,52.94a4.57,4.57,0,0,1-4.7,1.6c-1.38-.57-1.62-2.43-1.77-3.71-.08-.82,1.34-.83,1.28,0s-.15,2.63,1.12,2.56S97,52.17,98.16,51.8Z"/><path class="cls-3" d="M92.42,41.48c1.75-.4,4.29,1.44,4.16,3.31a.82.82,0,0,1-1,.77c-.83-.16-1.22-.84-1.88-1.29a2.45,2.45,0,0,0-.52-.31s0,0,0,0c-.1.2-.21.37-.32.57a5.18,5.18,0,0,0-.43,1.95.93.93,0,0,1-1.85,0C90.39,44.86,90.28,42,92.42,41.48Z"/><path class="cls-4" d="M64.72,69.24l.36,0a14.66,14.66,0,0,1-3.27,5.54c-2.57,2.47-5.84,1.31-8.25-.68a1.26,1.26,0,0,0-1.89.25.66.66,0,0,0-.45-.29c-3-.66-5.45,2.12-7.83-1.43a1.23,1.23,0,0,0-2.08,0c-1.75,2.53-3.75,4.39-7,4.45-4.42.08-4.22-4.54-2.87-7.44.39-.86-.05-2.19-1.2-2.08-2.92.26-5.88-.49-4.39-4a9.12,9.12,0,0,1,4-4.05c.14.43.28.84.44,1.28a1.76,1.76,0,0,0,1.56,1.18C38.19,70.52,56,69.39,64.72,69.24Z"/><path class="cls-3" d="M58.54,40.06a9.12,9.12,0,0,1,.18,3.24.9.9,0,0,1-1.5.4c-.85-.72-.88-1.9-1-2.92a3.51,3.51,0,0,0-.37-1.12,5.07,5.07,0,0,0-.46.35c-.14.16-.11.13-.09.43a15.43,15.43,0,0,1,.17,2.63,1,1,0,0,1-2,0c-.13-1.1-.77-2.08-.69-3.19.11-1.58,1.44-2.53,2.77-3.14a1.38,1.38,0,0,1,1.62.2A5.36,5.36,0,0,1,58.54,40.06Z"/><path class="cls-3" d="M51.83,52.11c.52,0,.53.67.1.86a11.16,11.16,0,0,0-2,1.16,1,1,0,0,0-.31.29.14.14,0,0,0,0,.11s0,0,0,.07a4.64,4.64,0,0,0,.5.49l1.47,1.15c.71.56-.06,1.66-.85,1.45-1.55-.44-3.57-1.65-3.28-3.55S50.37,52.14,51.83,52.11Z"/><path class="cls-3" d="M48.2,41.57c.68-.1,1.21.85.51,1.2-.86.42-1.91.76-2.65,1.2a1,1,0,0,0-.41.52,4.63,4.63,0,0,0-.18,1c.76.1,1.53-.13,2.31,0a1,1,0,0,1,0,1.9,10.27,10.27,0,0,1-1.61.66,4.67,4.67,0,0,1-2.78-.44,1.35,1.35,0,0,1-.68-1.17c0-1.53.22-3.7,1.82-4.45C45.76,41.5,46.93,41.77,48.2,41.57Z"/></svg>