<svg id="Capa_1" data-name="Capa 1" xmlns="http://www.w3.org/2000/svg" viewBox="0 0 139.98 139.98"><defs><style>.cls-1{opacity:0.4;}.cls-2{fill:#f2cadb;}.cls-3{fill:#1c1d1b;}.cls-4{fill:#f5cae0;}.cls-5{fill:#f1b941;}.cls-6{fill:#efb219;}</style></defs><g class="cls-1"><path class="cls-2" d="M134.14,83.68c-2.44,13.63-12.52,24.21-21.69,32.94-13.94,13.45-30.48,21-51.18,16.63-17.16-3.69-29.88-17.51-39.52-31.72S5.46,72.6,8,54.7C13.15,19,45.69,11,80.92,11,116.66,11.11,140.41,49.32,134.14,83.68Z"/></g><path class="cls-3" d="M73.73,32.62c15.65,3,27.1,19.84,14.71,33.38a56.12,56.12,0,0,1-1.33,7.39,157.51,157.51,0,0,1-3.65,15.89c-2.22,7.35-5.16,17.34-12.71,20.93a1.64,1.64,0,0,1-2.2-.58c-5.28-10.54-10.12-21.82-13.18-33.4a3.55,3.55,0,0,1-.72.57c-1.56.86-3.58-.28-4.68-1.39a8.77,8.77,0,0,1-2.43-5.81A7.68,7.68,0,0,1,49.79,64C41.38,47.24,55.66,29.2,73.73,32.62Zm13.6,30.23C90.14,57,92.17,51,88,44.9c-3.44-4.95-9.24-8.07-15.14-9-6.19-1-13.46.14-17.65,5.25-5.82,7.08-3.22,15.43-3.54,23.7a.69.69,0,0,1-.55.62,6.22,6.22,0,0,0-.63,1.33,7.34,7.34,0,0,0-.31,2.5,6.25,6.25,0,0,0,1.3,3.59c.43.52,1.47,1.62,2,1.5s.93-.8,1.07-1.48a97.79,97.79,0,0,1-1.89-10.65.73.73,0,0,1,.64-.84A1.31,1.31,0,0,1,55.18,61c3.29,1.82,10,4.8,13.9,4.46,6-.5,11.24-3.5,17.11-2.09A1.33,1.33,0,0,1,87.33,62.85ZM85,65.67C79,65,73.34,69,67.43,67.44c-4.13-1.08-8.15-2.78-12.35-3.55C60,78.31,64.21,92.73,70.67,106.57c6.87-4.45,9.22-15.87,10.94-23.1C82.8,78.41,82.94,70.91,85,65.67Z"/><path class="cls-4" d="M88,44.9c4.2,6.06,2.17,12.1-.64,18a1.33,1.33,0,0,0-1.14.51C80.32,62,75.06,65,69.08,65.45c-3.93.34-10.61-2.64-13.9-4.46a1.31,1.31,0,0,0-1.89.44.73.73,0,0,0-.64.84,97.79,97.79,0,0,0,1.89,10.65c-.14.68-.44,1.34-1.07,1.48s-1.59-1-2-1.5a6.25,6.25,0,0,1-1.3-3.59,7.34,7.34,0,0,1,.31-2.5,6.22,6.22,0,0,1,.63-1.33.69.69,0,0,0,.55-.62c.32-8.27-2.28-16.62,3.54-23.7,4.19-5.11,11.46-6.21,17.65-5.25C78.73,36.83,84.53,40,88,44.9Z"/><path class="cls-5" d="M67.43,67.44C73.34,69,79,65,85,65.67c-2.08,5.24-2.22,12.74-3.41,17.8-1.72,7.23-4.07,18.65-10.94,23.1C64.21,92.73,60,78.31,55.08,63.89,59.28,64.66,63.3,66.36,67.43,67.44ZM78,81.83a.84.84,0,0,0,1.18-1.18,32.76,32.76,0,0,1-2.44-3.58c.8-.73,1.59-1.46,2.41-2.17.67-.59-.22-1.74-1-1.24s-1.62,1.17-2.4,1.81c-.41-.72-.81-1.45-1.21-2.2l2.86-2.66c.66-.63-.21-1.79-1-1.27-1,.67-1.91,1.4-2.83,2.15l-.5-.93c-.4-.76-1.48-.09-1.13.67.18.4.35.81.53,1.23-.58.5-1.16,1-1.71,1.51a27.23,27.23,0,0,1-.87-3.16l1.36-1.17c.57-.49-.18-1.45-.81-1-.38.26-.76.55-1.13.83a.71.71,0,0,0-.86.66,44.78,44.78,0,0,0-4.54,4.29c-1-2.08-2-4.19-3-6.36-.26-.59-1.24-.17-1,.45.76,2.44,1.64,5,2.6,7.49l-.61.69a.4.4,0,0,0,.58.56c.12-.1.26-.21.38-.33.47,1.2,1,2.43,1.5,3.62l-1,1.06a.76.76,0,0,0,1.08,1.08l.61-.58A65.39,65.39,0,0,0,69.41,90l-.1.09a.88.88,0,0,0,1.07,1.36c.57.82,1.17,1.62,1.78,2.38A17.73,17.73,0,0,0,69.3,98.1c-.41.86.81,1.59,1.28.75a14.1,14.1,0,0,1,2.79-3.61c.36.43.74.84,1.14,1.25a.85.85,0,0,0,1.33-1L75,94a18.61,18.61,0,0,1,3.14-1.67c.93-.4.19-1.61-.63-1.5A8.09,8.09,0,0,0,74,92.23c-.55-.9-1.09-1.82-1.62-2.74.59-.63,1.17-1.28,1.74-1.93q.34-.39.72-.78c.7,1.2,1.44,2.36,2.2,3.48a.79.79,0,0,0,1.36-.8c-.69-1.42-1.42-2.8-2.17-4.17a15.05,15.05,0,0,0,1.44-1.85,1,1,0,0,0-1.29-1.29,8.16,8.16,0,0,0-1.28,1.07c-.55-1-1.09-2-1.61-3,.58-.6,1.2-1.18,1.81-1.77A13.41,13.41,0,0,0,78,81.83Z"/><path class="cls-3" d="M79.15,80.65A.84.84,0,0,1,78,81.83a13.41,13.41,0,0,1-2.69-3.39c-.61.59-1.23,1.17-1.81,1.77.52,1,1.06,2,1.61,3a8.16,8.16,0,0,1,1.28-1.07,1,1,0,0,1,1.29,1.29,15.05,15.05,0,0,1-1.44,1.85c.75,1.37,1.48,2.75,2.17,4.17a.79.79,0,0,1-1.36.8c-.76-1.12-1.5-2.28-2.2-3.48q-.37.39-.72.78c-.57.65-1.15,1.3-1.74,1.93.53.92,1.07,1.84,1.62,2.74a8.09,8.09,0,0,1,3.5-1.44c.82-.11,1.56,1.1.63,1.5A18.61,18.61,0,0,0,75,94l.87,1.49a.85.85,0,0,1-1.33,1c-.4-.41-.78-.82-1.14-1.25a14.1,14.1,0,0,0-2.79,3.61c-.47.84-1.69.11-1.28-.75a17.73,17.73,0,0,1,2.86-4.27c-.61-.76-1.21-1.56-1.78-2.38a.88.88,0,0,1-1.07-1.36l.1-.09a65.39,65.39,0,0,1-4.35-7.94l-.61.58a.76.76,0,0,1-1.08-1.08l1-1.06c-.52-1.19-1-2.42-1.5-3.62-.12.12-.26.23-.38.33a.4.4,0,0,1-.58-.56l.61-.69c-1-2.52-1.84-5-2.6-7.49-.2-.62.78-1,1-.45.93,2.17,1.94,4.28,3,6.36a44.78,44.78,0,0,1,4.54-4.29.71.71,0,0,1,.86-.66c.37-.28.75-.57,1.13-.83.63-.41,1.38.55.81,1l-1.36,1.17A27.23,27.23,0,0,0,70.78,74c.55-.52,1.13-1,1.71-1.51-.18-.42-.35-.83-.53-1.23-.35-.76.73-1.43,1.13-.67l.5.93c.92-.75,1.86-1.48,2.83-2.15.77-.52,1.64.64,1,1.27l-2.86,2.66c.4.75.8,1.48,1.21,2.2.78-.64,1.58-1.25,2.4-1.81s1.64.65,1,1.24c-.82.71-1.61,1.44-2.41,2.17A32.76,32.76,0,0,0,79.15,80.65Zm-4.81-3.94c-.36-.75-.7-1.53-1-2.3-.6.54-1.18,1.11-1.77,1.64.33.81.68,1.61,1,2.39C73.17,77.84,73.75,77.27,74.34,76.71Zm-1.33,9c.23-.29.45-.58.68-.85-.57-1-1.1-2.07-1.61-3.12-.87,1-1.71,2-2.48,3.07l1.75,3ZM71.29,80c-.39-.89-.72-1.77-1-2.68-1.07,1-2.16,2-3.21,3,.56,1,1.14,2.06,1.72,3.09A37.63,37.63,0,0,1,71.29,80Zm-1.75-4.77c-.32-1.12-.58-2.25-.79-3.38l-4.27,3.67c.55,1.07,1.1,2.11,1.67,3.16C67.26,77.46,68.4,76.31,69.54,75.18Z"/><path class="cls-6" d="M73.32,74.41c.32.77.66,1.55,1,2.3-.59.56-1.17,1.13-1.74,1.73-.37-.78-.72-1.58-1-2.39C72.14,75.52,72.72,75,73.32,74.41Z"/><path class="cls-6" d="M73.69,84.83c-.23.27-.45.56-.68.85l-1.66,2.08-1.75-3c.77-1.07,1.61-2.08,2.48-3.07C72.59,82.76,73.12,83.8,73.69,84.83Z"/><path class="cls-6" d="M70.25,77.27c.32.91.65,1.79,1,2.68a37.63,37.63,0,0,0-2.53,3.38c-.58-1-1.16-2.07-1.72-3.09C68.09,79.25,69.18,78.25,70.25,77.27Z"/><path class="cls-6" d="M68.75,71.8c.21,1.13.47,2.26.79,3.38-1.14,1.13-2.28,2.28-3.39,3.45-.57-1-1.12-2.09-1.67-3.16Z"/></svg>