<svg id="Capa_1" data-name="Capa 1" xmlns="http://www.w3.org/2000/svg" viewBox="0 0 139.98 139.98"><defs><style>.cls-1{opacity:0.4;}.cls-2{fill:#e1d8e1;}.cls-3{fill:#1c1d1b;}.cls-4{fill:#b2b2b2;}</style></defs><g class="cls-1"><path class="cls-2" d="M75.34,136.44c-13.7,0-26.4-8.33-37.12-16.19C21.75,108.14,10.2,92.18,9,70,8,51.64,17.85,36.74,28.9,25.16s23.43-19.71,41.33-19C106,7.64,122.5,38.46,131.66,72.53,140.81,106.89,110,136.44,75.34,136.44Z"/></g><path class="cls-3" d="M111.47,91.81c1.42,2.4,1.57,5.88,1.33,8.6a1,1,0,0,1-1.7.72,1.89,1.89,0,0,1-1,.3c-27-.12-53.95-1.05-81,0a1.87,1.87,0,0,1-1.87-1.86c-.08-2.54-.29-4.84.52-7.27a1.31,1.31,0,0,1,2-.76,1.24,1.24,0,0,1,1-1.84l1.67-.13a1.55,1.55,0,0,1-.66-1.2C30.26,66.34,44.69,47.76,66.12,46a6.9,6.9,0,0,1-.48-4.42c.35-1.27,1.29-2.74,2.71-3a4.68,4.68,0,0,1,4.33,1.76c1.13,1.31,3.1,4,2.56,5.86,10,1.27,19.82,5.55,26.49,13.25,6.88,8,12.17,21.12,9.19,31.79A1.61,1.61,0,0,1,111.47,91.81Zm-1.42,5.85h.06c-.46-1.51-1.07-3-1.62-4.48a1,1,0,0,1-.32-.17c-12.7.37-25.48-.82-38.2-.7-13,.14-26.22,1-39.21-.15a1.46,1.46,0,0,1-.58-.17,1.58,1.58,0,0,1,.22,1,19.44,19.44,0,0,0,.24,4.54C56.9,95.47,83.78,96.08,110.05,97.66Zm-2.65-7.45c-1.48-10.52-1.5-20-9.63-28.44a38.06,38.06,0,0,0-25-11.56C49.59,48.86,35.06,66,34.92,88.34a1.46,1.46,0,0,1-.38,1c12.68-1,25.57-.92,38.24-.94C84.2,88.42,96.12,88,107.4,90.21ZM71.83,45.93a30.26,30.26,0,0,0-1.45-2.79,4.32,4.32,0,0,0-1-1,.47.47,0,0,0-.17-.07c-.06.09-.18.2-.06,0a2.36,2.36,0,0,0-.37.92,10.58,10.58,0,0,0-.07,2.81C69.74,45.83,70.78,45.86,71.83,45.93Z"/><path class="cls-4" d="M110.11,97.67h-.06c-26.27-1.58-53.15-2.19-79.41-.1A19.44,19.44,0,0,1,30.4,93a1.58,1.58,0,0,0-.22-1,1.46,1.46,0,0,0,.58.17c13,1.16,26.2.29,39.21.15,12.72-.12,25.5,1.07,38.2.7a1,1,0,0,0,.32.17C109,94.69,109.65,96.16,110.11,97.67Z"/><path class="cls-4" d="M97.77,61.77c8.13,8.39,8.15,17.92,9.63,28.44C96.12,88,84.2,88.42,72.78,88.43c-12.67,0-25.56,0-38.24.94a1.46,1.46,0,0,0,.38-1C35.06,66,49.59,48.86,72.8,50.21A38.06,38.06,0,0,1,97.77,61.77Z"/><path class="cls-4" d="M70.38,43.14a30.26,30.26,0,0,1,1.45,2.79c-1-.07-2.09-.1-3.11-.08A10.58,10.58,0,0,1,68.79,43a2.36,2.36,0,0,1,.37-.92c-.12.2,0,.09.06,0a.47.47,0,0,1,.17.07A4.32,4.32,0,0,1,70.38,43.14Z"/></svg>