<svg id="Capa_1" data-name="Capa 1" xmlns="http://www.w3.org/2000/svg" viewBox="0 0 139.98 139.98"><defs><style>.cls-1{opacity:0.4;}.cls-2{fill:#e1d8e1;}.cls-3{fill:#1c1d1b;}.cls-4{fill:#fcf9dc;}.cls-5{fill:#f6f6f6;}.cls-6{fill:#f5cae0;}.cls-7{fill:#226cac;}</style></defs><g class="cls-1"><path class="cls-2" d="M75.34,136.44c-13.7,0-26.4-8.33-37.12-16.19C21.75,108.14,10.2,92.18,9,70,8,51.64,17.85,36.74,28.9,25.16s23.43-19.71,41.33-19C106,7.64,122.5,38.46,131.66,72.53,140.81,106.89,110,136.44,75.34,136.44Z"/></g><path class="cls-3" d="M108.26,56.6c2.4,9.19.23,18.6-2.49,27.78a1.88,1.88,0,0,1,.87.26c11,6.1,12.35,19.08.14,25.18-14.53,7.25-31.4,4.13-47,4.5-9.38.21-24.39,1.8-31.72-5.69S25.64,89,35.66,87.85c-3.38-9.77-5.14-19.95-6.55-30.34a1.63,1.63,0,0,1,1.53-2c11.65-.81,23.35-1.07,35.05-1.05a45,45,0,0,1-.46-14.16,1.65,1.65,0,0,1,1.61-1.22H70a16.2,16.2,0,0,1,.44-3.1,1.15,1.15,0,0,1-1.32-.61,15.68,15.68,0,0,1-1.57-5.65c0-.49-.11-1.17.3-1.54.22-.18.31-.21.36-.47s.62-.34.68,0,.31.29.49.47a2.52,2.52,0,0,1,.48,1.24,25.72,25.72,0,0,0,.88,2.92,1.91,1.91,0,0,0,0-2.39c-.76-1.17-2.12-2.41-2.11-3.88a.79.79,0,0,1,1-.73c1.67.44,3.73,3.16,4.13,4.86a4.57,4.57,0,0,1-1.14,4.08,13.61,13.61,0,0,0-.34,4.82h.6a1.65,1.65,0,0,1,1.57,2.06,47.84,47.84,0,0,0-.78,8.63,32.31,32.31,0,0,1,0,4.71c11,.12,21.95.44,32.86.76A1.9,1.9,0,0,1,108.26,56.6Zm-2.72,7.06a17.63,17.63,0,0,0-.42-4.43c-.2-.8-11-.34-12.17-.37-20.14-.43-40.35-1.39-60.49-.26.55,4,1.29,7.92,2.13,11.86,1.22,1.4,5.5,5.45,6.39,1.56.63-2.69-.32-5.2-1.24-7.69-.52-1.42,1.62-2.2,2.35-1,1.92,3.07,2.77,1.74,4.73.12A7.24,7.24,0,0,1,49.3,62a1,1,0,0,1,1.34.72c0-.15,0-.32,0-.47a.64.64,0,0,1,1.28,0c.12,2.8,1.58,7,5.16,6.77,3.15-.23,3.21-3.45,3-5.92A1.49,1.49,0,0,1,63,62.38c2.62,4.67,6.09,3.07,9-.17a1.2,1.2,0,0,1,1.79,0,.93.93,0,0,1,.9.87c.78,8.63,12.9,11.53,12.2.86-.11-1.76,2.52-2,3-.4,1.24,4.18,3.32,2.11,5.06-.3a1.38,1.38,0,0,1,1-.61,1.2,1.2,0,0,1,2-.1c.82,1.29,2,3.28,3.67,3.54s2.67-1.47,3.77-2.36A1.29,1.29,0,0,1,105.54,63.66Zm-10.2,45.8c11-2.44,24.37-12.76,9.28-21.3-1,3.39-2.1,6.74-2.92,10a2,2,0,0,1-2.19,1.55,2.22,2.22,0,0,1-.58.56c-16.67,11.33-40.57,5.11-57.37-2.72l.18.69c.25.84-1,1.42-1.43.61a81.24,81.24,0,0,1-3.77-8.58C30.05,91.7,24.37,100.83,30.75,106c3.33,2.7,7.81,3.72,12,4.12,6.53.61,13,.23,19.53.17C73.15,110.14,84.6,111.83,95.34,109.46ZM104,73.64c.36-1.69.79-3.5,1.1-5.33a5.36,5.36,0,0,1-3.86.67,7.1,7.1,0,0,1-4.32-3.65c-2.51,3.36-5.13,4.84-7.3,3.27A7.1,7.1,0,0,1,81.38,74c-4.67-.59-7.69-4.49-8.4-8.85-2.81,3.35-6.8,3.93-10,1.63-.63,2.89-2.46,5.46-5.9,5.1-4.53-.51-6.61-4.16-6.53-8.28a1.16,1.16,0,0,1-.69.62c-1.85.64-2.85,3.11-4.8,3.44a3.57,3.57,0,0,1-1.39,0c.56,2.72.29,5.59-1.81,7.49-2.34,2.12-4.85.41-6.65-1.62.52,2.24,1.05,4.51,1.62,6.76,21.13-1.7,43.37-6.92,63.47,2.21,1.81.83.25,3.43-1.54,2.65-19.93-8.69-40.71-2-61.44-2.94.29,1.09.58,2.17.86,3.26,19.61-4.37,42.43-2.68,61.6,2.94C101.3,83.49,102.85,78.63,104,73.64ZM98.2,94.13c.26-1,.55-1.94.82-2.9-20.26-3.07-39.83-6.12-60.35-4.16.82,3.06,1.67,6.1,2.51,9.14l.1-.12a.62.62,0,0,1,.57-.82c-.57,0-.6.24-.26-.74a8.32,8.32,0,0,1,.87-1.74,7.29,7.29,0,0,1,2.62-3c2.78-1.3,4.51.94,5.64,3.33.92-1.21,2.11-2.23,3.56-1.85a9.34,9.34,0,0,1,4.51,3.53c.92-2.86,3-6.16,6.18-5.79,2.81.32,4.27,2.12,5.11,4.42,3.15-3.4,6.8-3.75,9.22.33,3.06-3.18,6.94-4.2,9.1.69a8.25,8.25,0,0,1,6.33-2.16A6.72,6.72,0,0,1,98.2,94.13Zm-2,2.82a3.28,3.28,0,0,0-2.33-1.75c-2.11-.35-4.12,1-5.65,2.28a1.07,1.07,0,0,1-1.8-.78c-2.43-2.69-4.16-1.83-6.19.83a1.62,1.62,0,0,1-2.91-.38c-1.38-4.7-4.6-2.82-6.67.33a1.49,1.49,0,0,1-2.76-.75c-.75-7.7-6.17-4.87-8.12.2a.76.76,0,0,1-1.43,0,1,1,0,0,1-.45,0,7.89,7.89,0,0,1-2.85-2.06c-1.73-1.64-2.51,0-3.5,1.65a1.31,1.31,0,0,1-2.37-.31c-.38-1-1.77-5.44-3.41-3.6a27.15,27.15,0,0,0-2,2.87,2.41,2.41,0,0,1-.72.7C59.62,101.06,80.61,106.28,96.25,97ZM71,42.36H68.32c-.38,4,0,8.11-.43,12.07h2.49a29,29,0,0,1,.11-5.61C70.58,46.66,70.78,44.52,71,42.36Z"/><path class="cls-4" d="M105.12,59.23a17.63,17.63,0,0,1,.42,4.43,1.29,1.29,0,0,0-.16.09c-1.1.89-2.11,2.62-3.77,2.36s-2.85-2.25-3.67-3.54a1.2,1.2,0,0,0-2,.1,1.38,1.38,0,0,0-1,.61c-1.74,2.41-3.82,4.48-5.06.3-.49-1.6-3.12-1.36-3,.4.7,10.67-11.42,7.77-12.2-.86a.93.93,0,0,0-.9-.87,1.2,1.2,0,0,0-1.79,0c-2.92,3.24-6.39,4.84-9,.17a1.49,1.49,0,0,0-2.77.74c.16,2.47.1,5.69-3,5.92-3.58.26-5-4-5.16-6.77a.64.64,0,0,0-1.28,0c0,.15,0,.32,0,.47A1,1,0,0,0,49.3,62a7.24,7.24,0,0,0-2.48,1.44c-2,1.62-2.81,2.95-4.73-.12-.73-1.21-2.87-.43-2.35,1,.92,2.49,1.87,5,1.24,7.69-.89,3.89-5.17-.16-6.39-1.56-.84-3.94-1.58-7.89-2.13-11.86,20.14-1.13,40.35-.17,60.49.26C94.11,58.89,104.92,58.43,105.12,59.23Z"/><path class="cls-5" d="M104.62,88.16c15.09,8.54,1.76,18.86-9.28,21.3-10.74,2.37-22.19.68-33.06.78-6.53.06-13,.44-19.53-.17-4.19-.4-8.67-1.42-12-4.12-6.38-5.12-.7-14.25,5.79-15.67a81.24,81.24,0,0,0,3.77,8.58c.41.81,1.68.23,1.43-.61l-.18-.69c16.8,7.83,40.7,14,57.37,2.72a2.22,2.22,0,0,0,.58-.56,2,2,0,0,0,2.19-1.55C102.52,94.9,103.58,91.55,104.62,88.16Z"/><path class="cls-6" d="M105.08,68.31c-.31,1.83-.74,3.64-1.1,5.33-1.13,5-2.68,9.85-4.15,14.75-19.17-5.62-42-7.31-61.6-2.94-.28-1.09-.57-2.17-.86-3.26,20.73,1,41.51-5.75,61.44,2.94,1.79.78,3.35-1.82,1.54-2.65C80.25,73.35,58,78.57,36.88,80.27c-.57-2.25-1.1-4.52-1.62-6.76,1.8,2,4.31,3.74,6.65,1.62,2.1-1.9,2.37-4.77,1.81-7.49a3.57,3.57,0,0,0,1.39,0c2-.33,3-2.8,4.8-3.44a1.16,1.16,0,0,0,.69-.62c-.08,4.12,2,7.77,6.53,8.28,3.44.36,5.27-2.21,5.9-5.1,3.15,2.3,7.14,1.72,10-1.63.71,4.36,3.73,8.26,8.4,8.85A7.1,7.1,0,0,0,89.6,68.6c2.17,1.57,4.79.09,7.3-3.27A7.1,7.1,0,0,0,101.22,69,5.36,5.36,0,0,0,105.08,68.31Z"/><path class="cls-6" d="M99,91.23c-.27,1-.56,1.93-.82,2.9a6.72,6.72,0,0,0-3.47-1.85,8.25,8.25,0,0,0-6.33,2.16c-2.16-4.89-6-3.87-9.1-.69-2.42-4.08-6.07-3.73-9.22-.33-.84-2.3-2.3-4.1-5.11-4.42-3.23-.37-5.26,2.93-6.18,5.79a9.34,9.34,0,0,0-4.51-3.53c-1.45-.38-2.64.64-3.56,1.85-1.13-2.39-2.86-4.63-5.64-3.33a7.29,7.29,0,0,0-2.62,3,8.32,8.32,0,0,0-.87,1.74c-.34,1-.31.77.26.74a.62.62,0,0,0-.57.82l-.1.12c-.84-3-1.69-6.08-2.51-9.14C59.19,85.11,78.76,88.16,99,91.23Z"/><path class="cls-4" d="M93.92,95.2A3.28,3.28,0,0,1,96.25,97c-15.64,9.33-36.63,4.11-53.15-.77a2.41,2.41,0,0,0,.72-.7,27.15,27.15,0,0,1,2-2.87c1.64-1.84,3,2.64,3.41,3.6a1.31,1.31,0,0,0,2.37.31c1-1.67,1.77-3.29,3.5-1.65a7.89,7.89,0,0,0,2.85,2.06,1,1,0,0,0,.45,0,.76.76,0,0,0,1.43,0c2-5.07,7.37-7.9,8.12-.2a1.49,1.49,0,0,0,2.76.75c2.07-3.15,5.29-5,6.67-.33a1.62,1.62,0,0,0,2.91.38c2-2.66,3.76-3.52,6.19-.83a1.07,1.07,0,0,0,1.8.78C89.8,96.2,91.81,94.85,93.92,95.2Z"/><path class="cls-7" d="M68.32,42.37H71c-.26,2.16-.46,4.3-.55,6.48a29,29,0,0,0-.11,5.61H67.89C68.35,50.48,67.94,46.37,68.32,42.37Z"/></svg>