<svg id="Capa_1" data-name="Capa 1" xmlns="http://www.w3.org/2000/svg" viewBox="0 0 139.98 139.98"><defs><style>.cls-1{opacity:0.4;}.cls-2{fill:#aacd75;}.cls-3{fill:#99b828;}.cls-4{fill:#f6f6f6;}.cls-5{fill:#1c1d1b;}.cls-6{fill:#f1b941;}</style></defs><g class="cls-1"><path class="cls-2" d="M18.45,104.93c-7.61-12.64-7.74-28.15-7.16-41.53C12.18,43,19.1,25.57,37.23,15.21c15.07-8.47,33.4-5.84,49.59-.91S117,26.33,126.29,42c18.46,31,.91,59.08-23.19,83.11C79,149.83,37.51,136.64,18.45,104.93Z"/></g><path class="cls-3" d="M56.2,59.29s3.65,4,6,3.35,5.13-3.35,5.13-3.35,6.15-.23,7.09-1.4S81.49,60.77,85,61.08s6.3.63,5.92-.93-4.29-8-4.29-8,7.09-.62,7.24-4S90.67,43,89,42.72s-7.32-.24-7.32-.24l-.78-5.83s-1.48-.55-4.67.39a19,19,0,0,0-4.85,2,22,22,0,0,0-4.64,0c-1.17.31-3,.62-3.66,2.8a26.64,26.64,0,0,0-.78,4.83S58,45.44,55,47.7,47,55.4,46.62,56.49a23.42,23.42,0,0,0-.7,3.43s3.89,1.63,6,1.09A22.79,22.79,0,0,0,56.2,59.29Z"/><path class="cls-4" d="M111,74.12c4.48,2,7.73,5.16,6.34,10.85-1.18,4.77-5.41,8.73-9.17,11.56-11.64,8.74-29.1,10.82-43.14,10.29-9.42-.37-19.16-1.49-27.89-5.2-11.65-5-17.41-20.54-6.19-27.69-8.67,8.48-3.66,18.15,6.59,23.6a54.52,54.52,0,0,0,32.39,5.85c7.78-1.07,61.88-11.15,40.84-26.7A10.89,10.89,0,0,0,111,74.12Z"/><path class="cls-5" d="M110.3,70.16C121.4,74.29,124.78,84.34,116,94c-12.13,13.32-33.84,17-51,15.78C52.79,109,35.19,108,26.85,97.46c-7.39-9.33-6.82-24.6,6.6-27.14.11-.26.2-.51.31-.75a10.06,10.06,0,0,1-3.61-.37,1.49,1.49,0,0,1-.87-2.14c3.47-7.13,9.26-13.75,15.15-19a1.08,1.08,0,0,1,1.51,0A28.09,28.09,0,0,1,49,51.39c3.09-4,7.28-6.85,12.49-5.42a7.2,7.2,0,0,1,1.39-5.73c1.73-2,4.25-2.19,6.68-1.73,1,.19.75,1.84-.23,1.73-1.77-.2-3.77,0-5,1.47a7.29,7.29,0,0,0-1.13,5.41s0,.06,0,.09,0,.12,0,.19h0a.61.61,0,0,1-.73.52c-5-.66-9,1.32-12.28,5.11a22,22,0,0,0-3.59,5.89c-.92,2.17,3.47,1.89,4.9,1.59l0-.1a.77.77,0,0,1,1.33-.76A2.8,2.8,0,0,0,53,60c1-.43,2.06-.9,3.12-1.35a.63.63,0,0,1,.9.75.76.76,0,0,1,.81.13c2.08,2.6,4.77,2.31,8.09-.84A1,1,0,0,1,67,58.21c2.83,1.1,4.39-.46,6.67-1.47a1.72,1.72,0,0,1,1.08-.25A19.11,19.11,0,0,1,81,59.14l.07.08c1.39.26,2.73.81,4.07,1.16.44.11,4.62,1.22,4.45-.12-.27-2.13-1.9-4.06-3-5.77a.82.82,0,0,1,0-.92h0a1.29,1.29,0,0,1,0-2.58,14.46,14.46,0,0,0,4.14-.64c.66-.49,1.42-1,2.25-1.53a2.15,2.15,0,0,0-.4-2.25c-2.19-3.16-6.59-3.39-10-2.77a1,1,0,0,1-1.31-1c-.07-1.76-.52-3.44-.74-5.17-3.1-.46-5.61.54-8.29,2.2-.44.28-1.11-.3-.76-.76,2.49-3.29,6.33-4,10.23-3.27a1,1,0,0,1,.75,1c.1,1.65.53,3.23.76,4.85,4.27-.54,10.26.21,11.73,4.86a5,5,0,0,1,.23,1.22c2.48-1.05,5.11-1.27,6.94,1a11.26,11.26,0,0,1,2.2,5.77,15.31,15.31,0,0,1,0,5.88A27,27,0,0,1,110.3,70.16Zm7,14.81c1.39-5.69-1.86-8.87-6.34-10.85a10.89,10.89,0,0,1-.23,2.56c21,15.55-33.06,25.63-40.84,26.7a54.52,54.52,0,0,1-32.39-5.85c-10.25-5.45-15.26-15.12-6.59-23.6-11.22,7.15-5.46,22.72,6.19,27.69,8.73,3.71,18.47,4.83,27.89,5.2,14,.53,31.5-1.55,43.14-10.29C111.91,93.7,116.14,89.74,117.32,85ZM98.56,93.1c5.93-2.16,17.26-6.31,10.61-13.16-2,2.49-5.59,3.7-9.45,4.23H99.6c.21,2,.37,4,.43,6a1.43,1.43,0,0,1-1.41,1.42c-4.23.14-8.47-.09-12.69-.29-2.94-.13-6.64.32-9.62-.39-.18,1-.35,2-.5,3.08a1.36,1.36,0,0,1-1.68,1C67.4,92.78,59.57,90.7,53.25,87.2a1.22,1.22,0,0,1-2,.29.37.37,0,0,1-.18,0c-6.25-1.66-12.72-2.83-18.7-5.36a1.6,1.6,0,0,1-.8-1.38A39.8,39.8,0,0,1,32,76.08c-2.63,4.38-4.16,9.36.11,13.53,4.06,4,9.49,6.47,14.92,8.09a52.7,52.7,0,0,0,24,2C80.27,98.25,89.71,96.34,98.56,93.1Zm.84-10.69c5.2-1.19,9.5-4.19,8.64-9.37l-.4-.12a1.79,1.79,0,0,1-.64-3,40.8,40.8,0,0,0-8.2-11.36c-2.17,3.75-2.4,8-2.47,12.31a1.42,1.42,0,0,1,1,.9A76.39,76.39,0,0,1,99.4,82.41Zm2.08-24.85c0-2.24.25-4.52-1.1-6.54s-3.79-1.67-5.93-.63c-1.24,1.81-3.92,2.72-6.32,3l.11.09c1,1.31,5.93,8.1,1.59,9.1-3.3.76-6.15-1.27-9.31-1.66a.94.94,0,0,1-.8-1.4c-.63,1.14.15.93-1.54.2a23.27,23.27,0,0,0-2.74-1,1.21,1.21,0,0,0-1.13.06c2.93,2.11,5.86,4.25,8.68,6.49,2.63,2.08,6.15,4.89,7.16,8.18,1.28-.68,2.57-1.32,3.9-1.9,0-5.53.4-10.81,3.52-15.6a1.23,1.23,0,0,1,1.91-.24C100.14,56.31,100.81,56.92,101.48,57.56Zm-4.3,31.15a66.61,66.61,0,0,0-2-14.66,1.19,1.19,0,0,1-.32,0c-6.19,2.65-11.67,6.46-17.25,10.22a.45.45,0,0,1-.18.07c-.19,1.15-.37,2.28-.57,3.41,2.89-.41,6.35.28,9.07.43C89.68,88.35,93.44,88.54,97.18,88.71ZM88.27,74.52c-2.65-1.91-4.79-5.11-7.08-7.41-2.55-2.57-5.32-4.85-8-7.33A5.91,5.91,0,0,1,69.91,61a55,55,0,0,1,3.3,10.7,1.4,1.4,0,0,1-1,1.62,37.69,37.69,0,0,1,4.87,0,1.3,1.3,0,0,1,1.28,1.28,58.3,58.3,0,0,1-.53,6.74A108.33,108.33,0,0,1,88.27,74.52ZM75.72,75.87A50.07,50.07,0,0,0,61.91,77c-2.78.61-6.18,2.4-9,2.32a.35.35,0,0,1-.31-.53C53.42,77.5,55.12,76.63,57,76a1.1,1.1,0,0,1-1-1A54.23,54.23,0,0,0,52.18,62a9,9,0,0,1-7.43-1.2.87.87,0,0,1-.38-1,36.08,36.08,0,0,1,3.61-7,15.39,15.39,0,0,1-2.74-2.37,111.1,111.1,0,0,0-12.6,16.7l2.16.67c1.6-2.23,4-3.29,7.44-1.61,6.24,3,9.84,10.86,10.81,17.74,6.9,1.32,13.74,5.26,20.37,7.86A147.41,147.41,0,0,0,75.72,75.87Zm-4.21-2.48a1.1,1.1,0,0,1-.9-.93,103.62,103.62,0,0,0-3-11.75c-.79,0-1.71.88-2.66,1.72a.77.77,0,0,1-.07.64c-.56.86-1.38,1.13-2.16,1.79a21.65,21.65,0,0,0-1.93,1.79A13.55,13.55,0,0,0,58,71.43s0,.06,0,.08c.23.93.44,1.87.61,2.83A1.31,1.31,0,0,1,58,75.68c1.73-.49,3.49-.81,4.73-1.05A62.2,62.2,0,0,1,71.51,73.39ZM59.29,65.12c.31-.38.66-.81,1.07-1.24a8.85,8.85,0,0,1-3.76-3.46.6.6,0,0,1-.1-.55,14.64,14.64,0,0,1-2.7,1.53A40.75,40.75,0,0,1,57.17,69,14.18,14.18,0,0,1,59.29,65.12ZM50.75,85.65c-.77-6-3.12-13.24-8.43-16.59-6.56-4.13-7.52,5.68-7.58,10.55C40.07,81.59,45.7,83,50.75,85.65Z"/><path class="cls-4" d="M109.17,79.94c6.65,6.85-4.68,11-10.61,13.16-8.85,3.24-18.29,5.15-27.6,6.61a52.7,52.7,0,0,1-24-2c-5.43-1.62-10.86-4.08-14.92-8.09-4.27-4.17-2.74-9.15-.11-13.53a39.8,39.8,0,0,0-.45,4.65,1.6,1.6,0,0,0,.8,1.38c6,2.53,12.45,3.7,18.7,5.36a.37.37,0,0,0,.18,0,1.22,1.22,0,0,0,2-.29C59.57,90.7,67.4,92.78,74.13,95a1.36,1.36,0,0,0,1.68-1c.15-1,.32-2,.5-3.08,3,.71,6.68.26,9.62.39,4.22.2,8.46.43,12.69.29A1.43,1.43,0,0,0,100,90.2c-.06-2-.22-4-.43-6h.12C103.58,83.64,107.12,82.43,109.17,79.94Z"/><path class="cls-6" d="M108,73c.86,5.18-3.44,8.18-8.64,9.37a76.39,76.39,0,0,0-2.11-10.66,1.42,1.42,0,0,0-1-.9c.07-4.29.3-8.56,2.47-12.31A40.8,40.8,0,0,1,107,69.9a1.79,1.79,0,0,0,.64,3Zm-2.31,3.29a.8.8,0,0,0,.55-1c-.26-.76-1.07-1-1.57-1.59a12,12,0,0,1-1.12-2c-.41-.73-1.74-.23-1.41.58a22.36,22.36,0,0,0,1.09,2.56C103.74,75.65,104.74,76.62,105.73,76.33Zm-4.54-7.17c.28-.63.55-1.17.06-1.78a.94.94,0,0,0-.93-.24c-.74.18-1.24,1.33-1.61,1.92-.61,1,.89,1.82,1.55.91.07-.11.15-.22.24-.34A.76.76,0,0,0,101.19,69.16Z"/><path class="cls-5" d="M106.28,75.33a.8.8,0,0,1-.55,1c-1,.29-2-.68-2.46-1.47a22.36,22.36,0,0,1-1.09-2.56c-.33-.81,1-1.31,1.41-.58a12,12,0,0,0,1.12,2C105.21,74.34,106,74.57,106.28,75.33Z"/><path class="cls-6" d="M100.38,51c1.35,2,1.15,4.3,1.1,6.54-.67-.64-1.34-1.25-2-1.83a1.23,1.23,0,0,0-1.91.24C94.45,60.76,94,66,94.05,71.57c-1.33.58-2.62,1.22-3.9,1.9-1-3.29-4.53-6.1-7.16-8.18-2.82-2.24-5.75-4.38-8.68-6.49a1.21,1.21,0,0,1,1.13-.06,23.27,23.27,0,0,1,2.74,1c1.69.73.91.94,1.54-.2a.94.94,0,0,0,.8,1.4c3.16.39,6,2.42,9.31,1.66,4.34-1-.61-7.79-1.59-9.1l-.11-.09c2.4-.33,5.08-1.24,6.32-3C96.59,49.35,99,48.88,100.38,51Zm-4.53,2.81c1-.85-.65-2.38-1.51-1.17a4.1,4.1,0,0,0-.64,3.07.61.61,0,0,0,1.22,0A2.68,2.68,0,0,1,95.85,53.83ZM90.7,69.26a.63.63,0,0,0,.77-.76,3.72,3.72,0,0,0-3.19-2.16c-.64,0-.82,1.06-.16,1.16C89.25,67.67,89.65,68.94,90.7,69.26Z"/><path class="cls-5" d="M101.25,67.38c.49.61.22,1.15-.06,1.78a.76.76,0,0,1-.69.47c-.09.12-.17.23-.24.34-.66.91-2.16.1-1.55-.91.37-.59.87-1.74,1.61-1.92A.94.94,0,0,1,101.25,67.38Z"/><path class="cls-5" d="M94.34,52.66c.86-1.21,2.54.32,1.51,1.17a2.68,2.68,0,0,0-.93,1.9.61.61,0,0,1-1.22,0A4.1,4.1,0,0,1,94.34,52.66Z"/><path class="cls-6" d="M95.18,74.05a66.61,66.61,0,0,1,2,14.66c-3.74-.17-7.5-.36-11.25-.58-2.72-.15-6.18-.84-9.07-.43.2-1.13.38-2.26.57-3.41a.45.45,0,0,0,.18-.07C83.19,80.46,88.67,76.65,94.86,74A1.19,1.19,0,0,0,95.18,74.05ZM92.89,86.46c.67.78,1.91-.45,1.13-1.13s-1.61-1.24-1.74-2.17c-.1-.66-1.14-.49-1.12.15C91.16,84.57,92.11,85.56,92.89,86.46Zm-6.47-4.32c.37-.43.76-.72.67-1.35s-1-.75-1.39-.37a3.4,3.4,0,0,0-.34.4,4.55,4.55,0,0,0-1.23,2.49c0,.94,1.31.89,1.42,0A4.94,4.94,0,0,1,86.42,82.14Z"/><path class="cls-5" d="M94,85.33c.78.68-.46,1.91-1.13,1.13s-1.73-1.89-1.73-3.15c0-.64,1-.81,1.12-.15C92.41,84.09,93.35,84.74,94,85.33Z"/><path class="cls-5" d="M91.47,68.5a.63.63,0,0,1-.77.76c-1-.32-1.45-1.59-2.58-1.76-.66-.1-.48-1.14.16-1.16A3.72,3.72,0,0,1,91.47,68.5Z"/><path class="cls-5" d="M87.09,80.79c.09.63-.3.92-.67,1.35a4.94,4.94,0,0,0-.87,1.17c-.11.89-1.45.94-1.42,0a4.55,4.55,0,0,1,1.23-2.49,3.4,3.4,0,0,1,.34-.4C86.11,80,87,80.13,87.09,80.79Z"/><path class="cls-5" d="M84,72.89a.91.91,0,0,1,.41,1.28c-.27.47-.84.52-1.33.57a.82.82,0,0,1-.86-.95,4.11,4.11,0,0,0-.85-.23.6.6,0,0,1,0-1.19A6.18,6.18,0,0,1,84,72.89Z"/><path class="cls-6" d="M81.19,67.11c2.29,2.3,4.43,5.5,7.08,7.41a108.33,108.33,0,0,0-10.44,6.91,58.3,58.3,0,0,0,.53-6.74,1.3,1.3,0,0,0-1.28-1.28,37.69,37.69,0,0,0-4.87,0,1.4,1.4,0,0,0,1-1.62A55,55,0,0,0,69.91,61a5.91,5.91,0,0,0,3.33-1.26C75.87,62.26,78.64,64.54,81.19,67.11Zm3.24,7.06A.91.91,0,0,0,84,72.89a6.18,6.18,0,0,0-2.63-.52.6.6,0,0,0,0,1.19,4.11,4.11,0,0,1,.85.23.82.82,0,0,0,.86.95C83.59,74.69,84.16,74.64,84.43,74.17ZM78,68.91a.93.93,0,1,0-1.81,0l.14.83a.8.8,0,0,0,1.53,0Z"/><path class="cls-5" d="M76.17,68.91a.93.93,0,1,1,1.81,0l-.14.83a.8.8,0,0,1-1.53,0Z"/><path class="cls-6" d="M61.91,77a50.07,50.07,0,0,1,13.81-1.16,147.41,147.41,0,0,1-2.3,15.9c-6.63-2.6-13.47-6.54-20.37-7.86-1-6.88-4.57-14.72-10.81-17.74-3.47-1.68-5.84-.62-7.44,1.61l-2.16-.67a111.1,111.1,0,0,1,12.6-16.7A15.39,15.39,0,0,0,48,52.78a36.08,36.08,0,0,0-3.61,7,.87.87,0,0,0,.38,1A9,9,0,0,0,52.18,62,54.23,54.23,0,0,1,56,75a1.1,1.1,0,0,0,1,1c-1.86.62-3.56,1.49-4.34,2.81a.35.35,0,0,0,.31.53C55.73,79.43,59.13,77.64,61.91,77Zm9.77,2.61a.9.9,0,0,0,0-1.28c-1.32-1.36-3.38.31-3.9,1.62a1,1,0,0,0,.24.93c.25.25.2.37.23.68a.21.21,0,0,0,.42,0c-.06-.26,0-.4.29-.43a1,1,0,0,0,.58-.45,1,1,0,0,1,.43-.42C70.53,80,71.19,80.2,71.68,79.64Zm-2.59,7a.83.83,0,0,0,.65-1.51c-1-.73-2.46-.6-3.47-1.39a.54.54,0,0,0-.78.76,4.61,4.61,0,0,0,1.43,1.09A16,16,0,0,0,69.09,86.69Zm-22-23.21a.9.9,0,0,0-.29-.72c0-.1,0-.21-.07-.32a.7.7,0,0,0-1.34,0c0,.11-.05.22-.06.32a.85.85,0,0,0-.29.72c0,.32,0,.64.06,1a.86.86,0,0,0,1,.93.88.88,0,0,0,1-.93Zm-6.64.45a.63.63,0,0,0,.89-.89c-.58-.67-1.53-1.36-1.69-2.28-.09-.58-1-.41-1,.14A4.21,4.21,0,0,0,40.44,63.93Z"/><path class="cls-5" d="M71.68,78.36a.9.9,0,0,1,0,1.28c-.49.56-1.15.33-1.71.65a1,1,0,0,0-.43.42,1,1,0,0,1-.58.45c-.25,0-.35.17-.29.43a.21.21,0,0,1-.42,0c0-.31,0-.43-.23-.68a1,1,0,0,1-.24-.93C68.3,78.67,70.36,77,71.68,78.36Z"/><path class="cls-6" d="M70.61,72.46a1.1,1.1,0,0,0,.9.93,62.2,62.2,0,0,0-8.79,1.24c-1.24.24-3,.56-4.73,1.05a1.31,1.31,0,0,0,.54-1.34c-.17-1-.38-1.9-.61-2.83,0,0,0-.05,0-.08a13.55,13.55,0,0,1,2.86-4.78,21.65,21.65,0,0,1,1.93-1.79c.78-.66,1.6-.93,2.16-1.79a.77.77,0,0,0,.07-.64c1-.84,1.87-1.68,2.66-1.72A103.62,103.62,0,0,1,70.61,72.46Zm-2.26-6.24a3.23,3.23,0,0,0,0-2.08.82.82,0,0,0-1.56,0,3.1,3.1,0,0,0,0,2.08.34.34,0,0,0,.07.11c0,.06,0,.15.1.19a.75.75,0,0,0,.52.23h.12a.79.79,0,0,0,.52-.23.84.84,0,0,0,.09-.19A.76.76,0,0,0,68.35,66.22Zm-2,3.82c.53-.59-.19-1.7-.89-1.16a1.16,1.16,0,0,1-1,.38c-.36-.09-.61-.44-1-.53a.83.83,0,0,0-1,1A1.94,1.94,0,0,0,64.28,71,2.53,2.53,0,0,0,66.39,70Z"/><path class="cls-5" d="M69.74,85.18a.83.83,0,0,1-.65,1.51,16,16,0,0,1-2.17-1,4.61,4.61,0,0,1-1.43-1.09.54.54,0,0,1,.78-.76C67.28,84.58,68.71,84.45,69.74,85.18Z"/><path class="cls-5" d="M68.38,64.14a3.23,3.23,0,0,1,0,2.08.76.76,0,0,1-.08.11.84.84,0,0,1-.09.19.79.79,0,0,1-.52.23h-.12a.75.75,0,0,1-.52-.23s-.07-.13-.1-.19a.34.34,0,0,1-.07-.11,3.1,3.1,0,0,1,0-2.08A.82.82,0,0,1,68.38,64.14Z"/><path class="cls-5" d="M65.5,68.88c.7-.54,1.42.57.89,1.16a2.53,2.53,0,0,1-2.11,1,1.94,1.94,0,0,1-1.78-1.3.83.83,0,0,1,1-1c.41.09.66.44,1,.53A1.16,1.16,0,0,0,65.5,68.88Z"/><path class="cls-6" d="M42.32,69.06c5.31,3.35,7.66,10.6,8.43,16.59-5-2.64-10.68-4.06-16-6C34.8,74.74,35.76,64.93,42.32,69.06ZM47,78.13a5.25,5.25,0,0,1,0-.56.81.81,0,0,0-.92-.88.79.79,0,0,0-.9.88c0,.18,0,.38,0,.56a.84.84,0,0,0,.1.44c0,.43.06.86.07,1.29a.78.78,0,0,0,1.56,0l.08-1.29A1,1,0,0,0,47,78.13Zm-4.39-1.56a1,1,0,0,0,0-2l-2-.16a1.35,1.35,0,0,0-.55-.12l-1.18,0a1.16,1.16,0,0,0-1.22,1.26,1.17,1.17,0,0,0,1.22,1.27l1.18,0a1.21,1.21,0,0,0,.55-.13Z"/><path class="cls-5" d="M46.79,62.76a.9.9,0,0,1,.29.72l0,1a.88.88,0,0,1-1,.93.86.86,0,0,1-1-.93c0-.33-.05-.65-.06-1a.85.85,0,0,1,.29-.72c0-.1,0-.21.06-.32a.7.7,0,0,1,1.34,0C46.74,62.55,46.77,62.66,46.79,62.76Z"/><path class="cls-5" d="M47,77.57a5.25,5.25,0,0,0,0,.56,1,1,0,0,1-.09.44l-.08,1.29a.78.78,0,0,1-1.56,0c0-.43,0-.86-.07-1.29a.84.84,0,0,1-.1-.44c0-.18,0-.38,0-.56a.79.79,0,0,1,.9-.88A.81.81,0,0,1,47,77.57Z"/><path class="cls-5" d="M42.61,74.54a1,1,0,0,1,0,2l-2,.15a1.21,1.21,0,0,1-.55.13l-1.18,0a1.17,1.17,0,0,1-1.22-1.27,1.16,1.16,0,0,1,1.22-1.26l1.18,0a1.35,1.35,0,0,1,.55.12Z"/><path class="cls-5" d="M41.33,63a.63.63,0,0,1-.89.89,4.21,4.21,0,0,1-1.79-3c0-.55.9-.72,1-.14C39.8,61.68,40.75,62.37,41.33,63Z"/></svg>