<svg id="Capa_1" data-name="Capa 1" xmlns="http://www.w3.org/2000/svg" viewBox="0 0 139.98 139.98"><defs><style>.cls-1{opacity:0.4;}.cls-2{fill:#b1dde6;}.cls-3{fill:#1c1d1b;}.cls-4{fill:#f1b941;}.cls-5{fill:#94b022;}.cls-6{fill:#e17529;}</style></defs><g class="cls-1"><path class="cls-2" d="M113,122c-10.62,8.53-25.2,9.73-37.91,10.08-19.44.55-37.26-5.19-51-22.78C12.66,94.62,11.12,75.82,12.32,59s5.23-31.53,18.81-42.14C58.52-4.07,90.12,12,118.25,35S140,100.67,113,122Z"/></g><path class="cls-3" d="M113.56,64.64c4,8.65.17,13.17-6,14.88-2.56,9.85-4.41,19.83-8.15,29.33a1.81,1.81,0,0,1-2.28,1,2.4,2.4,0,0,1-.6.26c-14.26,3.42-35.18,5-48.3-2.74a.79.79,0,0,1-.35-.45.93.93,0,0,1-.4-.45,143.85,143.85,0,0,1-4.77-14A49.86,49.86,0,0,0,39.6,84C39,82.82,38,80.34,36.91,79.07c-1.26-.09-2.52-.19-3.78-.32a1.44,1.44,0,0,1-1.33-1c-1.45-5.47-1.13-12.5,5.46-13.93a.63.63,0,0,1,.7.29,88.36,88.36,0,0,1,13.52-1.46C48,60,44.75,56.38,44,51.9a11.86,11.86,0,0,1,.72-6.36c-5,1.41-9.14-.72-11.66-5.56a1.06,1.06,0,0,1,.9-1.56,45.09,45.09,0,0,1,5.44-.23c-1.5-4.77-3-14.29,4.1-13.9s8.62,10.64,7.78,16.11c4.85-.81,9.64,3,12.79,7.4-.36-3.93-.74-7.87-1.17-11.78a1.19,1.19,0,0,1,.89-1.18,15.37,15.37,0,0,1,11.87,0,1.26,1.26,0,0,1,.9,1.2c0,1,0,2,0,3,.29-2.28.87-5.38,3.38-6.19,3.26-1.07,5.71,1.35,8.89-.21,6-2.94,10.56.85,11.71,6.39,2.09,0,4,.3,5.14,2.38a8.15,8.15,0,0,1,.44,4.06c-.06.64,3.52,2,4.08,2.47,4.53,3.31,2.63,10.22-1.27,13.23a31.14,31.14,0,0,1,3.8,1.22,1.35,1.35,0,0,1,.62,1.93A.84.84,0,0,1,113.56,64.64ZM103,77.29c8.18-.31,9.49-4,8.12-11.63a1.27,1.27,0,0,1,.16-.9c-11.63-.41-23.47-.38-35.07-1.36a1,1,0,0,1-.17,0c-.09,3.51-.19,7-.22,10.56a1.35,1.35,0,0,1-1.69,1.3c-1.59-.24-3.2-.47-4.8-.72A1.26,1.26,0,0,1,68.26,74v.81c0,.72-1.2.94-1.3.17-.46-3.32-.86-6.64-1.23-10-9.29,2.45-19.63.48-29.16,1.22h-.14A9,9,0,0,0,34,75.27c.47,1.69,6.5,1.27,7.66,1.31,5.49.22,11,.32,16.5.22,9.4-.17,19.17-1.64,28.55-.83C92.06,76.44,97.55,77.48,103,77.29Zm3.45-17.07c3.79-4.54,5.8-10.4-2.15-11.74a1.33,1.33,0,0,1-1-1.27c.34-3.2-.2-5.6-3.85-5.63a1.25,1.25,0,0,1-1.25-1.27C98,33.23,91.82,33.11,87.08,36a1,1,0,0,1-1,0c-3.84-2.29-7.33-.37-8.44,3.58a.58.58,0,0,1-1,.11c0,1.92,0,3.83-.07,5.74a7.64,7.64,0,0,1,3.57-3.85C83.3,40,85.21,43,86.15,45.8c1.46-1.74,3.45-3.53,5.56-2.83,2.36.8,3.43,2.83,4.19,5,3.18-1.36,6.67-.86,8.27,2.77s-.3,7.14-3.09,9.32a45.39,45.39,0,0,1,5.14.55A1.3,1.3,0,0,1,106.45,60.22ZM98,59c2.11-1.37,4.82-3.67,4-6.59-.92-3.22-3.62-3-6.16-1.56A1.26,1.26,0,0,1,94,50.13c-.32-1.19-1.51-6.42-4.24-4.59a14.14,14.14,0,0,0-3.28,3.27,1.06,1.06,0,0,1-1.76-.46C84.16,45.43,82,40.92,79,44.7a11.06,11.06,0,0,0-2.27,6.82.55.55,0,0,1-.37.46c-.09,3.38-.2,6.74-.29,10.11a.32.32,0,0,1,.14,0c6.51-.68,14-1.93,21.19-2A1.23,1.23,0,0,1,98,59Zm7.88,20.88a30.53,30.53,0,0,1-8.26.3c-19.54-1.73-39,.26-58.58-1a7.43,7.43,0,0,1,2.26,2,24.59,24.59,0,0,1,3.27,6.44c2.24,5.8,3.05,12.1,5.4,17.8a1.1,1.1,0,0,1,0,.64c15.23,3.23,30.18,2.68,45.55.57a2,2,0,0,1,1,.09C99.34,97.7,102.12,88.65,105.86,79.92Zm-32.21-28c.23-5.52,3.61-19.68-7-15.58-2.63,1,.75,16.62.92,19,.38,5.57.64,11.12.69,16.69a1.22,1.22,0,0,1,1.09-.46,13,13,0,0,1,3.85.49C73.21,65.39,73.39,58.66,73.65,51.93ZM65.46,62.25c-.31-3-.58-6-.86-8.94-2.23-3.75-4.4-7.89-8.59-9.77-2.46-1.12-5.48-1.12-7.48.92-5.61,5.65.21,13.86,5,17.7a.65.65,0,0,1,.23.38C57.69,62.42,61.63,62.39,65.46,62.25ZM49.62,40.88a.94.94,0,0,1-.23-.57c-.1-3.55.13-14.1-5.86-13.91-5.83.18-2.91,10-1.74,12.81.26.64-.52,1.36-1.15,1.15a10.32,10.32,0,0,0-4.88-.08,9.32,9.32,0,0,0,9.7,4A7.45,7.45,0,0,1,47,42.44,9.31,9.31,0,0,1,49.62,40.88Z"/><path class="cls-4" d="M111.12,65.66c1.37,7.65.06,11.32-8.12,11.63-5.45.19-10.94-.85-16.33-1.32-9.38-.81-19.15.66-28.55.83-5.51.1-11,0-16.5-.22-1.16,0-7.19.38-7.66-1.31a9,9,0,0,1,2.47-9.07h.14c9.53-.74,19.87,1.23,29.16-1.22.37,3.33.77,6.65,1.23,10,.1.77,1.3.55,1.3-.17V74a1.26,1.26,0,0,0,1.07.52c1.6.25,3.21.48,4.8.72a1.35,1.35,0,0,0,1.69-1.3c0-3.52.13-7,.22-10.56a1,1,0,0,0,.17,0c11.6,1,23.44.95,35.07,1.36A1.27,1.27,0,0,0,111.12,65.66Z"/><path class="cls-5" d="M104.3,48.48c8,1.34,5.94,7.2,2.15,11.74a1.3,1.3,0,0,0-.23.41,45.39,45.39,0,0,0-5.14-.55c2.79-2.18,4.64-5.84,3.09-9.32S99.08,46.63,95.9,48c-.76-2.19-1.83-4.22-4.19-5-2.11-.7-4.1,1.09-5.56,2.83C85.21,43,83.3,40,80.07,41.61a7.64,7.64,0,0,0-3.57,3.85c0-1.91.06-3.82.07-5.74a.58.58,0,0,0,1-.11c1.11-4,4.6-5.87,8.44-3.58a1,1,0,0,0,1,0c4.74-2.92,10.9-2.8,11.15,4.28a1.25,1.25,0,0,0,1.25,1.27c3.65,0,4.19,2.43,3.85,5.63A1.33,1.33,0,0,0,104.3,48.48Z"/><path class="cls-5" d="M102,52.45c.83,2.92-1.88,5.22-4,6.59a1.23,1.23,0,0,0-.58,1c-7.23.11-14.68,1.36-21.19,2a.32.32,0,0,0-.14,0c.09-3.37.2-6.73.29-10.11a.55.55,0,0,0,.37-.46A11.06,11.06,0,0,1,79,44.7c3-3.78,5.16.73,5.68,3.65a1.06,1.06,0,0,0,1.76.46,14.14,14.14,0,0,1,3.28-3.27c2.73-1.83,3.92,3.4,4.24,4.59a1.26,1.26,0,0,0,1.85.76C98.35,49.47,101.05,49.23,102,52.45Z"/><path class="cls-4" d="M97.6,80.22a30.53,30.53,0,0,0,8.26-.3c-3.74,8.73-6.52,17.78-9.35,26.83a2,2,0,0,0-1-.09c-15.37,2.11-30.32,2.66-45.55-.57a1.1,1.1,0,0,0,0-.64c-2.35-5.7-3.16-12-5.4-17.8a24.59,24.59,0,0,0-3.27-6.44,7.43,7.43,0,0,0-2.26-2C58.58,80.48,78.06,78.49,97.6,80.22Zm-1,2.92c.65-.82-.42-2-1.2-1.19-1.42,1.41-2.84,2.89-4.28,4.39-1.57-1.33-3.27-2.56-5-3.79-.9-.66-2.09.87-1.21,1.55,1.59,1.24,3.15,2.5,4.67,3.81-1.91,2-3.86,3.9-5.89,5.72-.28-.23-.55-.46-.81-.7l-5-4.48c.42-.32.81-.66,1.24-1,.74-.55.06-1.77-.73-1.25-.58.37-1.13.76-1.68,1.16-1.72-1.53-3.41-3.06-5.14-4.55-.78-.69-1.93.42-1.15,1.14q2.41,2.23,4.8,4.48c-2.18,1.65-4.26,3.46-6.34,5.28-2.22-1.93-4.47-3.79-6.75-5.61A53.56,53.56,0,0,1,67,84.75a.55.55,0,0,0-.57-1,26.15,26.15,0,0,0-5.52,3.33c-1.85-1.43-3.71-2.83-5.6-4.17a.78.78,0,0,0-.47-.35c-.26-.19-.5-.39-.76-.55-.54-.39-1.21.49-.69.9a1,1,0,0,0,.14.11,8.41,8.41,0,0,0-3.78,3.44.69.69,0,0,0,1.19.7c.87-1.53,2.45-2.28,4-3,1.56,1.28,3.1,2.63,4.6,4-2,1.71-3.92,3.64-5.77,5.53-.76-.67-1.54-1.33-2.29-2a.37.37,0,0,0-.52.52l2,2.29-.47.49a.57.57,0,0,0,.81.81l.46-.43a74.38,74.38,0,0,0,5.65,5.86c-.79.53-1.6,1-2.44,1.51-.46.26-.14,1.07.36.86a27.37,27.37,0,0,0,3.09-1.47,27.91,27.91,0,0,0,3.32,2.49c.69.45,1.42-.55.86-1.11-.8-.81-1.64-1.59-2.47-2.37a53.49,53.49,0,0,0,6.11-4.55c1.49,1.44,3,2.85,4.54,4.21-.91.38-1.82.73-2.77,1a.49.49,0,0,0,.24.94,23.12,23.12,0,0,0,3.64-1,67.75,67.75,0,0,0,6.13,4.74c.86.58,1.76-.68,1.08-1.38-1.47-1.5-3-3-4.55-4.46a39.4,39.4,0,0,0,7-4.38c1.3,1.24,2.6,2.5,4,3.67-.28.37-.57.72-.83,1.1-.52.83.74,1.5,1.29.75l.7-.87A30.1,30.1,0,0,0,93,104a.86.86,0,0,0,1-1.35,44,44,0,0,0-3.56-3.39A21.11,21.11,0,0,0,94.16,95c.47-.78-.71-1.74-1.3-1-1.13,1.44-2.45,2.74-3.67,4.08-1.27-1-2.57-2.09-3.84-3.13a66.81,66.81,0,0,0,5.9-5.61c1.13,1,2.25,2.14,3.29,3.3.67.76,2-.25,1.41-1.1a22.58,22.58,0,0,0-3.23-3.83C94.11,86.18,95.43,84.64,96.64,83.14Z"/><path class="cls-3" d="M95.44,82c.78-.78,1.85.37,1.2,1.19-1.21,1.5-2.53,3-3.92,4.6A22.58,22.58,0,0,1,96,91.57c.56.85-.74,1.86-1.41,1.1-1-1.16-2.16-2.25-3.29-3.3A66.81,66.81,0,0,1,85.35,95c1.27,1,2.57,2.08,3.84,3.13,1.22-1.34,2.54-2.64,3.67-4.08.59-.75,1.77.21,1.3,1a21.11,21.11,0,0,1-3.67,4.21,44,44,0,0,1,3.56,3.39A.86.86,0,0,1,93,104a30.1,30.1,0,0,1-4.25-3l-.7.87c-.55.75-1.81.08-1.29-.75.26-.38.55-.73.83-1.1-1.36-1.17-2.66-2.43-4-3.67a39.4,39.4,0,0,1-7,4.38c1.55,1.48,3.08,3,4.55,4.46.68.7-.22,2-1.08,1.38a67.75,67.75,0,0,1-6.13-4.74,23.12,23.12,0,0,1-3.64,1,.49.49,0,0,1-.24-.94c1-.29,1.86-.64,2.77-1-1.55-1.36-3-2.77-4.54-4.21a53.49,53.49,0,0,1-6.11,4.55c.83.78,1.67,1.56,2.47,2.37.56.56-.17,1.56-.86,1.11a27.91,27.91,0,0,1-3.32-2.49,27.37,27.37,0,0,1-3.09,1.47c-.5.21-.82-.6-.36-.86.84-.47,1.65-1,2.44-1.51a74.38,74.38,0,0,1-5.65-5.86l-.46.43a.57.57,0,0,1-.81-.81l.47-.49-2-2.29a.37.37,0,0,1,.52-.52c.75.68,1.53,1.34,2.29,2,1.85-1.89,3.74-3.82,5.77-5.53-1.5-1.39-3-2.74-4.6-4-1.53.7-3.11,1.45-4,3a.69.69,0,0,1-1.19-.7,8.41,8.41,0,0,1,3.78-3.44,1,1,0,0,1-.14-.11c-.52-.41.15-1.29.69-.9.26.16.5.36.76.55a.78.78,0,0,1,.47.35c1.89,1.34,3.75,2.74,5.6,4.17a26.15,26.15,0,0,1,5.52-3.33.55.55,0,0,1,.57,1,53.56,53.56,0,0,0-4.84,3.38c2.28,1.82,4.53,3.68,6.75,5.61,2.08-1.82,4.16-3.63,6.34-5.28q-2.38-2.25-4.8-4.48c-.78-.72.37-1.83,1.15-1.14,1.73,1.49,3.42,3,5.14,4.55.55-.4,1.1-.79,1.68-1.16.79-.52,1.47.7.73,1.25-.43.31-.82.65-1.24,1l5,4.48c.26.24.53.47.81.7,2-1.82,4-3.76,5.89-5.72C88.13,86.6,86.57,85.34,85,84.1c-.88-.68.31-2.21,1.21-1.55,1.7,1.23,3.4,2.46,5,3.79C92.6,84.84,94,83.36,95.44,82ZM82.19,95l-.65-.61c-1.68-1.59-3.36-3.18-5.06-4.76-2.08,1.72-4.11,3.55-6.16,5.36,1.74,1.53,3.46,3.1,5.14,4.68A42.41,42.41,0,0,0,82.19,95ZM67,95.42c-2.11-2-4.21-4.1-6.33-6.12-2,1.69-4,3.46-6,5.31,2.14,1.85,4.3,3.68,6.39,5.58C63.13,98.71,65.07,97.09,67,95.42Z"/><path class="cls-4" d="M81.54,94.35l.65.61a42.41,42.41,0,0,1-6.73,4.67c-1.68-1.58-3.4-3.15-5.14-4.68,2.05-1.81,4.08-3.64,6.16-5.36C78.18,91.17,79.86,92.76,81.54,94.35Z"/><path class="cls-4" d="M66.63,36.35c10.63-4.1,7.25,10.06,7,15.58-.26,6.73-.44,13.46-.47,20.19a13,13,0,0,0-3.85-.49,1.22,1.22,0,0,0-1.09.46c0-5.57-.31-11.12-.69-16.69C67.38,53,64,37.36,66.63,36.35Z"/><path class="cls-6" d="M64.6,53.31c.28,3,.55,6,.86,8.94-3.83.14-7.77.17-11.72.29a.65.65,0,0,0-.23-.38c-4.77-3.84-10.59-12-5-17.7,2-2,5-2,7.48-.92C60.2,45.42,62.37,49.56,64.6,53.31Zm-4.39,4.62a.53.53,0,0,0-.75-.75,23.42,23.42,0,0,1-4.22,2.47c-.64.34-.07,1.29.57,1A13.79,13.79,0,0,0,60.21,57.93Zm-3.45-4.07c.71-.54.07-1.73-.72-1.24-2.51,1.56-4.7,3.49-4.68,6.65a.73.73,0,0,0,1.45,0C53,56.86,54.94,55.21,56.76,53.86Zm-4.21-3.79a.55.55,0,0,0-.95-.55c-1.13,1.91-2.58,4-2.63,6.31,0,.67,1,.66,1.06,0C50.18,53.78,51.76,51.92,52.55,50.07Z"/><path class="cls-4" d="M60.66,89.3c2.12,2,4.22,4.09,6.33,6.12-1.92,1.67-3.86,3.29-5.91,4.77-2.09-1.9-4.25-3.73-6.39-5.58C56.63,92.76,58.61,91,60.66,89.3Z"/><path class="cls-3" d="M59.46,57.18a.53.53,0,0,1,.75.75,13.79,13.79,0,0,1-4.4,2.69c-.64.32-1.21-.63-.57-1A23.42,23.42,0,0,0,59.46,57.18Z"/><path class="cls-3" d="M56,52.62c.79-.49,1.43.7.72,1.24-1.82,1.35-3.8,3-3.95,5.41a.73.73,0,0,1-1.45,0C51.34,56.11,53.53,54.18,56,52.62Z"/><path class="cls-3" d="M51.6,49.52a.55.55,0,0,1,.95.55c-.79,1.85-2.37,3.71-2.52,5.76-.06.66-1.07.67-1.06,0C49,53.52,50.47,51.43,51.6,49.52Z"/><path class="cls-5" d="M49.39,40.31a.94.94,0,0,0,.23.57A9.31,9.31,0,0,0,47,42.44a7.45,7.45,0,0,0-1.57,1.8,9.32,9.32,0,0,1-9.7-4,10.32,10.32,0,0,1,4.88.08c.63.21,1.41-.51,1.15-1.15C40.62,36.4,37.7,26.58,43.53,26.4,49.52,26.21,49.29,36.76,49.39,40.31Z"/></svg>