<svg id="Capa_1" data-name="Capa 1" xmlns="http://www.w3.org/2000/svg" viewBox="0 0 139.98 139.98"><defs><style>.cls-1{opacity:0.4;}.cls-2{fill:#2e6649;}.cls-3{fill:#1c1d1b;}.cls-4{fill:#f6f6f6;}.cls-5{fill:#d5ebf6;}</style></defs><g class="cls-1"><path class="cls-2" d="M11.65,37.37c5.91-12.57,18.7-19.64,30.18-25.1C59.46,4,78.2,2.33,97.67,13.22c16,8.91,24.51,25.46,29.73,41.26s7.14,30.81-.68,46.29C111.3,132,78.11,131.43,44.6,122.61,10.46,113.46-3.09,69.37,11.65,37.37Z"/></g><path class="cls-3" d="M103.26,44.89c3,6,2.45,14.84,0,20.94C101.5,70.11,97.43,76.76,92,76a31.58,31.58,0,0,1-1.09,17.31c-5.26,14.63-23.5,20.53-37.36,15.46-34.45-12.61-4.63-49.25-18.7-72.9A1.29,1.29,0,0,1,35.67,34a.92.92,0,0,1,.58-.77,46.66,46.66,0,0,1,41.53,2.17,2.55,2.55,0,0,1,.43.33,2.08,2.08,0,0,1,3.44,2c-.16.7-.28,1.39-.38,2.08a10.25,10.25,0,0,1,7.35-4.71C95.29,34.18,100.52,39.45,103.26,44.89ZM99.71,63.55c1.31-4.39,2.05-9.44.89-14S95.7,38.84,90.14,39c-5.87.14-7.34,5.39-8.22,10.24,0,0,0,.07,0,.12a31.05,31.05,0,0,0,.9,3c-.11-2.92.51-6.3,3.78-6.75s6.47,1.73,8.56,4.11c2.33,2.64,4.25,6.32,3.38,10-1,4.35-5.38,6.31-9.44,7.18.28.62.54,1.26.78,1.9.48,1.24.89,2.48,1.26,3.74C95.42,70.47,98.15,68.68,99.71,63.55Zm-4.32-4.94c.4-2.28-1-5.07-2.8-6.94a11,11,0,0,0-3.23-2.49,6.41,6.41,0,0,0-1.5-.5,3.12,3.12,0,0,0-.86,0,1.28,1.28,0,0,0-.81.54,5.52,5.52,0,0,0-.57,1.17,15,15,0,0,0-.09,6,1.11,1.11,0,0,1-.66,1.21c.9,2,1.87,4,2.8,6.08C90.8,63.12,94.78,61.93,95.39,58.61ZM48.13,101.33C65.26,111.45,90.64,102.9,88,80,86.43,65.83,75,54.62,77,40.21c-7.61,8-28.25-.37-38.19-2.94,5.13,8.27,5,17.82,3.57,27.52C40.69,76.27,35.6,93.94,48.13,101.33ZM68.87,38.55a18.57,18.57,0,0,0,3.9-1A51,51,0,0,0,42.09,34.3c4.78.76,9.48,2,14.24,3C60.32,38.07,64.76,39.07,68.87,38.55Z"/><path class="cls-4" d="M100.6,49.58c1.16,4.53.42,9.58-.89,14-1.56,5.13-4.29,6.92-8.6,8.94-.37-1.26-.78-2.5-1.26-3.74-.24-.64-.5-1.28-.78-1.9C93.13,66,97.5,64,98.51,59.67c.87-3.63-1.05-7.31-3.38-10-2.09-2.38-5.27-4.56-8.56-4.11s-3.89,3.83-3.78,6.75a31.05,31.05,0,0,1-.9-3s0-.07,0-.12c.88-4.85,2.35-10.1,8.22-10.24C95.7,38.84,99.41,44.94,100.6,49.58Z"/><path class="cls-4" d="M88,80c2.61,22.88-22.77,31.43-39.9,21.31-12.53-7.39-7.44-25.06-5.8-36.54,1.4-9.7,1.56-19.25-3.57-27.52,9.94,2.57,30.58,11,38.19,2.94C75,54.62,86.43,65.83,88,80ZM69.72,101c19.75-2.65,14-31.59,5.19-42.54a1.29,1.29,0,0,0-2.17.14A35.57,35.57,0,0,0,49.5,53a1.87,1.87,0,0,0-1.23.67.86.86,0,0,0-.78.76C46,65.41,41.87,77,45.23,88,48.17,97.53,60.48,102.28,69.72,101Z"/><path class="cls-3" d="M74.91,58.49C83.72,69.44,89.47,98.38,69.72,101c-9.24,1.25-21.55-3.5-24.49-13.07C41.87,77,46,65.41,47.49,54.45a.86.86,0,0,1,.78-.76A1.87,1.87,0,0,1,49.5,53a35.57,35.57,0,0,1,23.24,5.61A1.29,1.29,0,0,1,74.91,58.49Zm-4.68,39c14.8-3.71,8.27-23.14,3.63-34C66.49,67,55,63,50.29,56.42c-.26,0-.53,0-.79,0-.45,7.68-2.54,15.29-2.28,23C47.63,91.21,57.84,100.55,70.23,97.46Zm-16.16-41c4.42,3.21,10.81,5.66,16,4.61A34.13,34.13,0,0,0,54.07,56.42Z"/><path class="cls-5" d="M73.86,63.5c4.64,10.82,11.17,30.25-3.63,34-12.39,3.09-22.6-6.25-23-18-.26-7.69,1.83-15.3,2.28-23,.26,0,.53,0,.79,0C55,63,66.49,67,73.86,63.5Z"/><path class="cls-4" d="M72.77,37.57a18.57,18.57,0,0,1-3.9,1c-4.11.52-8.55-.48-12.54-1.28-4.76-.93-9.46-2.21-14.24-3A51,51,0,0,1,72.77,37.57Z"/><path class="cls-5" d="M70,61c-5.15,1-11.54-1.4-16-4.61A34.13,34.13,0,0,1,70,61Z"/></svg>