<svg id="Capa_1" data-name="Capa 1" xmlns="http://www.w3.org/2000/svg" viewBox="0 0 139.98 139.98"><defs><style>.cls-1{opacity:0.4;}.cls-2{fill:#f2cadb;}.cls-3{fill:#dbdada;}.cls-4{fill:#1c1d1b;}.cls-5{fill:#e8472b;}</style></defs><g class="cls-1"><path class="cls-2" d="M134.14,83.68c-2.44,13.63-12.52,24.21-21.69,32.94-13.94,13.45-30.48,21-51.18,16.63-17.16-3.69-29.88-17.51-39.52-31.72S5.46,72.6,8,54.7C13.15,19,45.69,11,80.92,11,116.66,11.11,140.41,49.32,134.14,83.68Z"/></g><path class="cls-3" d="M64.85,110.37c5.59.64,13.91,1.49,20.15-.81-7.78,7.25-20.58,5.29-28.46-1.51A25.1,25.1,0,0,0,64.85,110.37Z"/><path class="cls-3" d="M71.15,39a2.23,2.23,0,0,1,.26,3.09c-1.41,1.3-3.8-.36-5.07-.94a13.44,13.44,0,0,1-2.64-1.55c-.28-.21-.86-.67-.89-1s.38-.52.66-.69a2.82,2.82,0,0,0,.31-.21.92.92,0,0,0,1,.37C66.86,37.62,69.48,37.37,71.15,39Z"/><path class="cls-3" d="M89.16,40.43c1.28,11.61-31.59,5.81-38-1A83.67,83.67,0,0,1,66.82,35C72.28,34.13,88.24,32.11,89.16,40.43Zm-4,4a1.23,1.23,0,0,0,1.17-1.52c-1.09-6.37-8.69-8.33-13.43-4.39l0,0C71.3,36,68.12,35.61,65.4,36h0c-.63,0-1-.32-1.67-.26a4.33,4.33,0,0,0-1.28.29,3.39,3.39,0,0,0-1.79,1.5c-1,1.79.81,3.38,2.15,4.29a33.22,33.22,0,0,0,3.37,1.7,8.91,8.91,0,0,0,2.4.9,4.4,4.4,0,0,0,3.57-.55,3.57,3.57,0,0,0,1.3-1.73s.07.07.11.08C77.17,44,81.18,44.33,85.18,44.38Z"/><path class="cls-3" d="M93.69,41.15c.15,18.7-39,10-45.45-1.91C55.49,28.17,93.53,22.6,93.69,41.15Zm-2.27,1.5C96.12,26,55.32,31.24,49.2,38.23a1,1,0,0,0,.31,1.51c3.29,6.47,13.81,8.54,20.12,9.35C76.15,49.91,89.05,51.06,91.42,42.65Z"/><path class="cls-4" d="M46.37,38.35c6.69-15,51.24-17.6,49.36,4a11.51,11.51,0,0,1-.5,2.51.46.46,0,0,1,0,.23c-1.29,3.32-2,6.82-3.9,9.88v0c3.52,9.36,3.11,19.38,3.09,29.21,0,6,.31,12.37-1.77,18.13a11.18,11.18,0,0,1-4,5.29.73.73,0,0,1-.14.66c-8.32,12.16-29.59,9.15-36.34-3.19C48.93,102,47,97.67,46.44,92c-.74-7.73-.95-15.73-1.18-23.5-.18-6.18-.12-12.49,4.05-17.19a13.38,13.38,0,0,1-2.05-9.89,8.77,8.77,0,0,1-.56-1.8A1.06,1.06,0,0,1,46.37,38.35Zm1.87.89c6.47,11.9,45.6,20.61,45.45,1.91C93.53,22.6,55.49,28.17,48.24,39.24Zm43,55.34c.85-12.43,2.12-27.14-1.84-39.07a1,1,0,0,1,0-.63.93.93,0,0,1,0-1.05,34.11,34.11,0,0,0,2.11-3.9c-5.41,4-14.71,4-20.55,3.35-6.19-.75-17.57-3.41-22.29-9.5a15.43,15.43,0,0,0,2.17,6.48.7.7,0,0,1,.55.91s.06.1.11.16c.5.75-.29,1.43-1,1.29-3.44,6-3.09,13.21-2.57,19.95.43,5.46.36,10.94.75,16.38,1,12.68,7,18.49,19.84,19.16C80,108.72,90.28,108.08,91.21,94.58Zm-6.21,15c-6.24,2.3-14.56,1.45-20.15.81a25.1,25.1,0,0,1-8.31-2.32C64.42,114.85,77.22,116.81,85,109.56Z"/><path class="cls-4" d="M49.2,38.23c6.12-7,46.92-12.19,42.22,4.42-2.37,8.41-15.27,7.26-21.79,6.44-6.31-.81-16.83-2.88-20.12-9.35A1,1,0,0,1,49.2,38.23Zm1.93,1.15c6.44,6.86,39.31,12.66,38,1-.92-8.32-16.88-6.3-22.34-5.44A83.67,83.67,0,0,0,51.13,39.38Z"/><path class="cls-5" d="M89.37,55.51c4,11.93,2.69,26.64,1.84,39.07-.93,13.5-11.18,14.14-22.69,13.53-12.83-.67-18.89-6.48-19.84-19.16-.39-5.44-.32-10.92-.75-16.38-.52-6.74-.87-13.94,2.57-19.95.71.14,1.5-.54,1-1.29,0-.06-.08-.12-.11-.16a.7.7,0,0,0-.55-.91,15.43,15.43,0,0,1-2.17-6.48c4.72,6.09,16.1,8.75,22.29,9.5,5.84.7,15.14.65,20.55-3.35a34.11,34.11,0,0,1-2.11,3.9.93.93,0,0,0,0,1.05A1,1,0,0,0,89.37,55.51Zm-10,8.12c.37-.77-.06-2-1.08-1.88-2.39.21-4.76,1.92-7.05,2.69-3.49,1.19-7.08,2-10.61,3a1.63,1.63,0,0,0,0,3.11,107.51,107.51,0,0,0,14.69,4.12h.17s0,0,0,.05a12.54,12.54,0,0,0-.26,3.35A63.49,63.49,0,0,1,63,77.56c-1.22-.19-1.79,1.63-.53,1.89,4.63,1,9.34,1,14.05,1.23a1.32,1.32,0,0,0,1.3-1.3,16.59,16.59,0,0,0-.2-4.62,1,1,0,0,0-.78-.76,1.42,1.42,0,0,0-.79-2c-.77-.29-1.53-.59-2.28-.89a1.22,1.22,0,0,0,.09-.32c.12-1.42,1.07-2.63,1-4.06C76.77,66,78.64,65.13,79.37,63.63Zm-2.2,22.46a3.35,3.35,0,0,0-1.47-3.44,9.89,9.89,0,0,0-5.07-1.45,30.09,30.09,0,0,0-4-.06c-.81,0-1.62.09-2.43.16s-2.27,0-3,.83a1,1,0,0,0,0,1.38,2.08,2.08,0,0,0,.92.41c.43,3.07,1.94,5.92,5.2,6.74a9.39,9.39,0,0,0,7.41-1.48,1,1,0,0,0-.09.24c-.39,2.1-.46,4.36-2.08,5.92-1.2,1.16-3.16,1.27-4.69,1-3.66-.66-6.06-3.6-5.29-7.3.14-.63-.72-1.31-1.19-.69C57.8,93,62.48,97.91,67.14,99c5.92,1.42,11.28-3.56,9.6-9.62a1.15,1.15,0,0,0-1.33-.75A4.84,4.84,0,0,0,77.17,86.09Z"/><path class="cls-4" d="M86.35,42.86a1.23,1.23,0,0,1-1.17,1.52c-4-.05-8-.36-11.65-2.16,0,0-.07-.06-.11-.08a3.57,3.57,0,0,1-1.3,1.73,4.4,4.4,0,0,1-3.57.55,8.91,8.91,0,0,1-2.4-.9,33.22,33.22,0,0,1-3.37-1.7c-1.34-.91-3.1-2.5-2.15-4.29A3.39,3.39,0,0,1,62.42,36a4.33,4.33,0,0,1,1.28-.29c.63-.06,1,.24,1.67.26h0c2.72-.4,5.9,0,7.5,2.42l0,0C77.66,34.53,85.26,36.49,86.35,42.86Zm-14.94-.75A2.23,2.23,0,0,0,71.15,39c-1.67-1.65-4.29-1.4-6.4-1a.92.92,0,0,1-1-.37,2.82,2.82,0,0,1-.31.21c-.28.17-.69.37-.66.69s.61.83.89,1a13.44,13.44,0,0,0,2.64,1.55C67.61,41.75,70,43.41,71.41,42.11Z"/><path class="cls-4" d="M78.29,61.75c1-.09,1.45,1.11,1.08,1.88-.73,1.5-2.6,2.4-4.45,3.06,0,1.43-.9,2.64-1,4.06a1.22,1.22,0,0,1-.09.32c.75.3,1.51.6,2.28.89a1.42,1.42,0,0,1,.79,2,1,1,0,0,1,.78.76,16.59,16.59,0,0,1,.2,4.62,1.32,1.32,0,0,1-1.3,1.3c-4.71-.2-9.42-.25-14.05-1.23-1.26-.26-.69-2.08.53-1.89a63.49,63.49,0,0,0,12.17.55,12.54,12.54,0,0,1,.26-3.35s0,0,0-.05h-.17a107.51,107.51,0,0,1-14.69-4.12,1.63,1.63,0,0,1,0-3.11c3.53-1,7.12-1.85,10.61-3C73.53,63.67,75.9,62,78.29,61.75Zm-5.45,5.59-.75.23c-1.43.46-2.9.87-4.35,1.29,1.56.46,3.09,1,4.61,1.63A14.85,14.85,0,0,1,72.84,67.34Z"/><path class="cls-4" d="M75.7,82.65a3.35,3.35,0,0,1,1.47,3.44,4.84,4.84,0,0,1-1.76,2.58,1.15,1.15,0,0,1,1.33.75c1.68,6.06-3.68,11-9.6,9.62-4.66-1.13-9.34-6-5.73-10.69.47-.62,1.33.06,1.19.69-.77,3.7,1.63,6.64,5.29,7.3,1.53.27,3.49.16,4.69-1,1.62-1.56,1.69-3.82,2.08-5.92a1,1,0,0,1,.09-.24,9.39,9.39,0,0,1-7.41,1.48c-3.26-.82-4.77-3.67-5.2-6.74a2.08,2.08,0,0,1-.92-.41,1,1,0,0,1,0-1.38c.68-.83,2-.75,3-.83s1.62-.13,2.43-.16a30.09,30.09,0,0,1,4,.06A9.89,9.89,0,0,1,75.7,82.65Zm-1,2.84v0a.12.12,0,0,0,0-.07.41.41,0,0,0,0-.16l0,0a.13.13,0,0,0,0,0,2.08,2.08,0,0,0-.21-.21l-.14-.09a2.18,2.18,0,0,0-.37-.2l-.17-.09-.5-.19c-.41-.12-.84-.23-1.29-.32a11.09,11.09,0,0,0-1.23-.18,31.86,31.86,0,0,0-4-.09c-.88,0-1.75.07-2.64.13a1.33,1.33,0,0,1-.21,0,8.11,8.11,0,0,0,.38,1.18,5.46,5.46,0,0,0,.44.92,4.5,4.5,0,0,0,.25.41s.19.28.19.28a6.56,6.56,0,0,0,.62.67,2.68,2.68,0,0,0,.3.28l0,0h0l.14.09a4.56,4.56,0,0,0,.67.4l.17.08.36.12a5.9,5.9,0,0,0,.83.2h.15l.38,0h.78l.37,0a0,0,0,0,0,0,0H70a11.72,11.72,0,0,0,1.54-.43,1.61,1.61,0,0,1,.26-.09.76.76,0,0,1,.22-.11c.21-.11.44-.21.64-.34a7.66,7.66,0,0,0,.76-.5l.13-.11a3.4,3.4,0,0,0,.29-.26l.3-.3a.6.6,0,0,1,.11-.14c.11-.15.21-.32.31-.49,0,0,0,0,0,0s0,0,0,0A1.83,1.83,0,0,1,74.65,85.49Z"/><path class="cls-5" d="M74.65,85.46v0a1.83,1.83,0,0,0-.06.25s0,0,0,0,0,0,0,0c-.1.17-.2.34-.31.49a.6.6,0,0,0-.11.14l-.3.3a3.4,3.4,0,0,1-.29.26l-.13.11a7.66,7.66,0,0,1-.76.5c-.2.13-.43.23-.64.34a.76.76,0,0,0-.22.11,1.61,1.61,0,0,0-.26.09,11.72,11.72,0,0,1-1.54.43h-.15a0,0,0,0,1,0,0l-.37,0h-.78l-.38,0h-.15a5.9,5.9,0,0,1-.83-.2L67,88.28l-.17-.08a4.56,4.56,0,0,1-.67-.4L66,87.71h0l0,0a2.68,2.68,0,0,1-.3-.28,6.56,6.56,0,0,1-.62-.67s-.16-.25-.19-.28a4.5,4.5,0,0,1-.25-.41,5.46,5.46,0,0,1-.44-.92,8.11,8.11,0,0,1-.38-1.18,1.33,1.33,0,0,0,.21,0c.89-.06,1.76-.12,2.64-.13a31.86,31.86,0,0,1,4,.09,11.09,11.09,0,0,1,1.23.18c.45.09.88.2,1.29.32l.5.19.17.09a2.18,2.18,0,0,1,.37.2l.14.09a2.08,2.08,0,0,1,.21.21.13.13,0,0,1,0,0l0,0a.41.41,0,0,1,0,.16A.12.12,0,0,1,74.65,85.46Z"/><path class="cls-5" d="M72.09,67.57l.75-.23a14.85,14.85,0,0,0-.49,3.15c-1.52-.59-3-1.17-4.61-1.63C69.19,68.44,70.66,68,72.09,67.57Z"/></svg>