<svg id="Capa_1" data-name="Capa 1" xmlns="http://www.w3.org/2000/svg" viewBox="0 0 139.98 139.98"><defs><style>.cls-1{opacity:0.4;}.cls-2{fill:#aacd75;}.cls-3{fill:#9fd6de;}.cls-4{fill:#1c1d1b;}.cls-5{fill:#63c3d5;}.cls-6{fill:#6bc6da;}</style></defs><g class="cls-1"><path class="cls-2" d="M18.45,104.93c-7.61-12.64-7.74-28.15-7.16-41.53C12.18,43,19.1,25.57,37.23,15.21c15.07-8.47,33.4-5.84,49.59-.91S117,26.33,126.29,42c18.46,31,.91,59.08-23.19,83.11C79,149.83,37.51,136.64,18.45,104.93Z"/></g><path class="cls-3" d="M39.78,80.78s-8.12,4.94-8.44,4.85-13.71-5.89-13.71-5.89A26,26,0,0,1,22.83,75a9.62,9.62,0,0,1,2-1.24A11.93,11.93,0,0,1,27.47,73c4.1-.94,8.29-1.84,12.37-1.07Z"/><path class="cls-4" d="M40.17,81a2,2,0,0,1-.36.31l-.27.2-.56.4-1.13.78-2.37,1.45L33,85.43l-.66.29-.35.14-.18.06a.68.68,0,0,1-.21,0,1.48,1.48,0,0,1-.3,0L31,85.84l-.21-.09-.4-.19-.8-.36L17.42,80,17,79.82l.19-.22h0a23.92,23.92,0,0,1,3.94-3.91,21.59,21.59,0,0,1,2.49-1.89A7.85,7.85,0,0,1,25.28,73,17.23,17.23,0,0,1,27,72.53c1.07-.28,2.13-.49,3.21-.68s2.14-.36,3.22-.48a18.66,18.66,0,0,1,6.49.22h0l.34.07V72Zm-.79-.44.08-8.62.34.42h0a20.09,20.09,0,0,0-6.24.13c-1,.15-2.08.36-3.12.58s-2.1.46-3.16.64a8.22,8.22,0,0,0-2.8.87,21.17,21.17,0,0,0-2.38,1.66A24.5,24.5,0,0,0,18,79.89h0l-.18-.37,12.06,5.11,1.49.67a.18.18,0,0,0-.1,0s-.08,0,0,0l.16-.06.32-.13.64-.29,2.48-1.28,2.36-1.45,1.13-.78.56-.4.27-.2C39.27,80.62,39.42,80.46,39.38,80.56Z"/><path class="cls-5" d="M35.76,79.23c1.26-2.38,2.61-4.77,4-7.17,1.37,2.44,2.45,5.1,3.83,7.76a29,29,0,0,0,5.81,7.91,1.62,1.62,0,0,1,.49.63.66.66,0,0,1-.13.6c-.9,1.35-2.82,3.28-4.61,3.62"/><path class="cls-4" d="M35.38,79c1.27-2.38,2.63-4.77,4.06-7.18h0l.32-.59.35.62c2.08,3.69,3.49,7.78,6.11,11.57a26,26,0,0,0,2.27,2.83c.43.47.85.87,1.35,1.35a2.06,2.06,0,0,1,.44.56,1.11,1.11,0,0,1,.1.71,2.49,2.49,0,0,1-.39.7,11.59,11.59,0,0,1-1.9,2.06A6.23,6.23,0,0,1,45.42,93l-.51-.84a9.26,9.26,0,0,0,3.76-3.61c.11-.18.26-.45.22-.43a.34.34,0,0,0,0,.29c.06.12.08.12,0,.07l-.35-.31-.39-.35c-.26-.24-.51-.48-.75-.73a26,26,0,0,1-2.51-3,33.69,33.69,0,0,1-3.41-6c-.84-2-1.45-3.85-2.07-5.77l.67,0h0c-1.4,2.4-2.73,4.78-4,7.15Z"/><path class="cls-6" d="M18,79.29c-.11,3.5,1.27,8,3.75,12.07a.56.56,0,0,0,.2.21,1.18,1.18,0,0,0,.31.08q8.58.9,16.72,1.27a27.46,27.46,0,0,0,6.16-.34.63.63,0,0,0,.41-.21c.14-.25-.14-.65-.39-1l-7.07-8.8c-1-1.25-2-2.59-2-3.93a.31.31,0,0,0,0-.19c-.08-.14-.28-.16-.43-.16a104.74,104.74,0,0,0-17.68,1"/><path class="cls-4" d="M18.47,79.31A28.83,28.83,0,0,0,20,85.48c.39,1.09.92,2.2,1.45,3.33.28.57.59,1.15.91,1.73l.47.79a1.16,1.16,0,0,0-.26-.22,1.45,1.45,0,0,0-.45-.18c-.17,0,.05,0,.14,0l.67.08,10.48,1,5.06.28a33,33,0,0,0,4.79-.06c.37,0,.73-.1,1.09-.16l.51-.11c.16,0,.11-.06.09,0s0,0-.07-.12-.21-.27-.36-.45l-.86-1.05-3.29-4-3.05-3.78a10.6,10.6,0,0,1-1.31-2,4.56,4.56,0,0,1-.38-1.11,2.86,2.86,0,0,1-.06-.58v-.28s0,0,0,0a.38.38,0,0,0,.13.2c.15.12.18.08.15.09h-.78l-1.11,0-2.24,0q-2.25,0-4.5.06t-4.53.21a35.46,35.46,0,0,0-4.53.5L17.91,79a74,74,0,0,1,9.15-1c1.5-.11,3-.2,4.5-.24l2.23-.07,1.11,0h.55a2.39,2.39,0,0,1,.36,0,1.27,1.27,0,0,1,.75.3,1,1,0,0,1,.3.48,1.14,1.14,0,0,1,0,.29V79a2.71,2.71,0,0,0,0,.4,3.77,3.77,0,0,0,.3.85A16.94,16.94,0,0,0,38.36,82c.87,1.29,1.51,2.76,2.54,4,.52.67,1.09,1.32,1.64,2s1.14,1.35,1.75,2l.91,1a6.93,6.93,0,0,1,.47.56,1.21,1.21,0,0,1,.29.78.61.61,0,0,1-.5.48l-.54.16a9.82,9.82,0,0,1-1.13.22,29.1,29.1,0,0,1-4.88.16l-5.07-.23c-3.44-.23-7-.57-10.55-1l-.67-.09c-.13,0-.17,0-.47-.07a2.12,2.12,0,0,1-.57-.24,1.52,1.52,0,0,1-.36-.31,1.65,1.65,0,0,1-.18-.29L20.91,91l-.27-.45c-.33-.6-.64-1.19-.92-1.77a24,24,0,0,1-1.31-3.36,18,18,0,0,1-.82-6.17Z"/><path class="cls-3" d="M109.21,83.13s-8.69,2.23-8.91,2.12-8.93-6.43-8.93-6.43a24.71,24.71,0,0,1,5.23-5.18,6.87,6.87,0,0,1,1.94-1.08,7.24,7.24,0,0,1,2.46-.17c3.87.34,8,1.16,11.49,3.72Z"/><path class="cls-4" d="M109.4,83.33c-.15.07-.12,0-.16,0l-.08,0-.16,0-.32.08-.64.14-1.27.31-2.55.61-2.54.62-.65.15-.33.07-.17,0-.1,0h-.07a.52.52,0,0,1-.18,0l-.17-.12-.14-.1L99.61,85l-.51-.38L91.21,79,91,78.89l.14-.18h0a26.54,26.54,0,0,1,4-4.41,15,15,0,0,1,2.44-1.83,4.86,4.86,0,0,1,1.51-.53,9,9,0,0,1,1.54-.08,21.63,21.63,0,0,1,3,.3,26,26,0,0,1,3,.71,19.09,19.09,0,0,1,5.92,3h0l.21.16-.09.2Zm-.38-.41,3.23-7,.12.36h0a18.13,18.13,0,0,0-5.79-2.63,25.8,25.8,0,0,0-3-.55l-2.94-.26a5.13,5.13,0,0,0-2.66.37,14.73,14.73,0,0,0-2.37,1.6,24.6,24.6,0,0,0-4.07,4.09h0l0-.31,7.92,5.7,1,.73a.16.16,0,0,0-.1,0h.08l.15,0,.32-.07.63-.15,2.53-.64,2.53-.63,1.27-.32.64-.15.32-.08.15,0H109S109.12,82.87,109,82.92Z"/><path class="cls-5" d="M106.29,80.73a63.3,63.3,0,0,1,6.12-4.58c.39,2.6.38,5.1.59,7.56a16.85,16.85,0,0,0,1.84,7.06.82.82,0,0,1,.15.52c0,.16-.22.23-.39.29a14.92,14.92,0,0,1-5.65.8"/><path class="cls-4" d="M106.1,80.54a62.28,62.28,0,0,1,6.13-4.63h0l.36-.25.08.5c.3,1.94.37,3.82.48,5.65a30,30,0,0,0,.59,5.27,13.88,13.88,0,0,0,.81,2.54c.18.42.38.81.61,1.25a.94.94,0,0,1,.12.42.45.45,0,0,1-.2.37,2.48,2.48,0,0,1-.64.25,17.89,17.89,0,0,1-2.6.58,10.81,10.81,0,0,1-2.87.11l0-.43a10.09,10.09,0,0,0,2.59-.29,20.51,20.51,0,0,0,2.42-.69,2.32,2.32,0,0,0,.44-.19s0,0,0,.06,0,0,0-.06l-.16-.3-.19-.32c-.11-.22-.22-.44-.32-.66a14.68,14.68,0,0,1-.89-2.67,25,25,0,0,1-.61-5.4c0-.45,0-.9,0-1.35l0-1.37c0-.46,0-.92,0-1.38V76.14l.44.25h0a62.39,62.39,0,0,0-6.11,4.54Z"/><path class="cls-6" d="M91.78,78.29a33.42,33.42,0,0,0-1,11.47.24.24,0,0,0,.07.16.65.65,0,0,0,.2,0,126.28,126.28,0,0,1,12.62,1.51,45.66,45.66,0,0,0,5.31.91.8.8,0,0,0,.44,0c.24-.11.18-.41.1-.66-.78-2.49-1.59-5-2.41-7.63-.39-1.23-.79-2.59-.25-3.68a.39.39,0,0,0,0-.18c0-.13-.18-.21-.32-.25-4.81-1.45-10.1-2.39-14.77-1.66"/><path class="cls-4" d="M92,78.32a52.83,52.83,0,0,0-.75,6.45c-.07,1-.07,2-.07,2.93,0,.47,0,.94,0,1.39l.06.63s0,0-.07-.09a.33.33,0,0,0-.16-.07c-.06,0,.07,0,.14,0l.47,0,7.75.83,4,.71c1.35.29,2.69.58,4,.77.33,0,.67.1,1,.13l.5.06c.15,0,.19,0,.18,0a.2.2,0,0,0,0-.17,1.83,1.83,0,0,0-.11-.37l-.27-.84-1.1-3.4-1.12-3.51a7.94,7.94,0,0,1-.39-1.89,4.2,4.2,0,0,1,.06-1,4.42,4.42,0,0,1,.15-.48l.1-.23s0,0,0,0a.23.23,0,0,0,0,.11c.06.08.06,0,0,0l-.2-.07-.48-.16-1-.31c-.63-.19-1.27-.37-1.9-.54q-1.89-.48-3.78-.78a31.39,31.39,0,0,0-3.74-.29,16.8,16.8,0,0,0-3.67.36l0-.45a25.34,25.34,0,0,1,7.53-.24c1.28.17,2.56.4,3.84.7.64.15,1.29.33,1.93.51l1,.29.48.16.29.11a1,1,0,0,1,.45.38.64.64,0,0,1,.07.39.71.71,0,0,1-.07.21l-.08.18c0,.12-.08.24-.11.37a3.08,3.08,0,0,0,0,.81,9.37,9.37,0,0,0,.34,1.74c.29,1.2.38,2.41.74,3.57.17.58.38,1.15.57,1.73s.39,1.13.6,1.7l.32.84a4.34,4.34,0,0,1,.14.43.51.51,0,0,1-.1.48.79.79,0,0,1-.59.14l-.53,0c-.35,0-.7-.06-1.05-.11-1.39-.18-2.77-.45-4.11-.73l-4-.66q-3.94-.51-7.78-.79l-.47,0a2.44,2.44,0,0,1-.3,0,.46.46,0,0,1-.26-.11.3.3,0,0,1-.12-.18,1,1,0,0,1,0-.2v-.17l0-.34c0-.47,0-.94,0-1.41q0-1.45.15-3a38,38,0,0,1,1.1-6.54Z"/><path class="cls-3" d="M42.07,60.18s9.73,2.36,9.8,2.54-.26,8.43-.26,8.43a71.2,71.2,0,0,1-9.34-.76,14,14,0,0,1-2.45-.49,6.91,6.91,0,0,1-1.9-1c-2.45-1.64-4.72-3.39-5.11-5.73Z"/><path class="cls-4" d="M42.11,60c.19,0,.14,0,.19,0h.09l.17,0,.35.07.69.14,1.39.31,2.81.69c1,.25,1.9.51,2.85.8l.71.22.36.12.18.07.1,0,.06,0a.28.28,0,0,1,.12.12l0,.16v.89l-.28,7.45v.16h-.32a73.75,73.75,0,0,1-7.67-.49c-1.22-.13-2.42-.24-3.6-.48a8.07,8.07,0,0,1-1.57-.47,8.74,8.74,0,0,1-1.15-.62A16.46,16.46,0,0,1,35.79,68a16.08,16.08,0,0,1-1.54-1.39,5.91,5.91,0,0,1-1.73-3.3h0l0-.14.26-.09Zm-.07.39-9.16,3,.23-.23h0a6.12,6.12,0,0,0,2,3.13,15.18,15.18,0,0,0,1.67,1.32l1.85,1.3a5.79,5.79,0,0,0,2.25,1c1,.22,2.17.37,3.33.51a72,72,0,0,0,7.38.6h0l-.33.15.31-7.4,0-1a.1.1,0,0,0,0,.07h0l-.06,0-.16-.06L51,62.64l-.7-.22c-.94-.28-1.89-.54-2.83-.79L44.7,61l-1.39-.31-.69-.14-.34-.07-.18,0-.08,0S41.9,60.37,42,60.37Z"/><path class="cls-5" d="M42.17,62.7c-3.17.19-6.26.35-9.25.48,2-1.55,4.36-3,6.47-4.61a17.23,17.23,0,0,0,5-5.57.92.92,0,0,1,.34-.45,1.32,1.32,0,0,1,.65-.12c1.79,0,4.79.42,6.19,1.23"/><path class="cls-4" d="M42.13,62.88q-4.77.28-9.29.48h0l-.5,0,.38-.28c1.52-1.16,3.17-2.26,4.77-3.39a33.35,33.35,0,0,0,4.41-3.66A13,13,0,0,0,43.57,54a11.2,11.2,0,0,0,.62-1.13,1.11,1.11,0,0,1,.29-.37,1.19,1.19,0,0,1,.54-.24,4.91,4.91,0,0,1,.84,0,23.51,23.51,0,0,1,3,.33,9.68,9.68,0,0,1,2.87.94l-.41.36a10.34,10.34,0,0,0-2.76-.69,29.23,29.23,0,0,0-3-.22,4.15,4.15,0,0,0-.59,0s0,0,.08,0,0,0,0,.06l-.12.28c-.05.1-.09.2-.14.31s-.21.4-.33.6a14.59,14.59,0,0,1-1.75,2.22,29.73,29.73,0,0,1-4.57,3.73L37,60.94l-1.27.78c-.43.26-.84.52-1.28.77l-1.28.77L33,63h0c3-.14,6.06-.3,9.21-.5Z"/><path class="cls-6" d="M50.71,71.12a48.14,48.14,0,0,0,14.71-5.58c.07-.05.14-.1.14-.16s-.06-.12-.12-.17q-4.95-4.41-9.76-8.55a23.74,23.74,0,0,0-4.1-3,1,1,0,0,0-.46-.14,1.06,1.06,0,0,0-.77.5q-2.7,3.33-5.53,6.38a7.63,7.63,0,0,1-3.45,2.29.6.6,0,0,0-.2.08c-.12.08-.06.19,0,.27a34.45,34.45,0,0,0,9.53,8.08"/><path class="cls-4" d="M50.57,71a68.14,68.14,0,0,0,8.18-2.64c1.28-.52,2.49-1.11,3.68-1.71q.87-.47,1.71-1l.75-.48s0,0-.06.11a.22.22,0,0,0,0,.16l-.11-.1L64.38,65l-5.95-5.39L55.5,57a26.76,26.76,0,0,0-3-2.39c-.26-.18-.54-.35-.82-.51l-.42-.23c-.14-.07-.18-.07-.19-.06a.47.47,0,0,0-.18.13,2.51,2.51,0,0,0-.28.33l-.6.77L47.54,58,45,60.78a9.12,9.12,0,0,1-1.57,1.3,6.78,6.78,0,0,1-1,.55c-.19.08-.39.15-.6.22l-.31.09s-.05,0,0,0a.23.23,0,0,0,.1-.07c0-.07,0,0,0,0s.06.07.09.12l.23.28.47.55c.32.37.64.73,1,1.09.67.73,1.38,1.44,2.14,2.14s1.58,1.39,2.47,2.06A21.35,21.35,0,0,0,51,71l-.48.21a31,31,0,0,1-5.74-4c-.8-.69-1.55-1.38-2.24-2.09-.34-.36-.68-.71-1-1.07-.16-.18-.33-.36-.48-.54l-.24-.28-.13-.16a.34.34,0,0,1,0-.39.8.8,0,0,1,.32-.24.88.88,0,0,1,.26-.09l.23-.08.46-.17a4.86,4.86,0,0,0,.84-.46,11.66,11.66,0,0,0,1.44-1.19c.95-.87,2.08-1.7,2.93-2.64.43-.48.82-1,1.23-1.46s.79-1,1.16-1.51l.56-.78a3.4,3.4,0,0,1,.31-.41,1.13,1.13,0,0,1,.58-.35,1.09,1.09,0,0,1,.71.1l.47.23c.31.16.61.33.89.51a26.55,26.55,0,0,1,3.16,2.41l3,2.58c2,1.76,4.07,3.57,6.1,5.41l.39.35c.06.07.12.1.23.23a.4.4,0,0,1,.09.27.36.36,0,0,1-.13.21,2.35,2.35,0,0,1-.24.17l-.21.13-.42.26c-.58.33-1.16.66-1.77,1-1.22.61-2.5,1.15-3.83,1.66a58.43,58.43,0,0,1-8.58,2.41Z"/><path class="cls-3" d="M70.78,46.24S60.65,44,60.56,43.85s-1.45-9.19-1.45-9.19a27.48,27.48,0,0,1,8.58-1,7.16,7.16,0,0,1,4.85,1.84C75.78,38,79,40.9,80.29,44.25Z"/><path class="cls-4" d="M70.78,46.44l-.21,0-.1,0-.18,0-.38-.1L69.16,46l-1.5-.37-3-.69-2.89-.61-.72-.15-.36-.08-.18-.05-.1,0-.06,0a.27.27,0,0,1-.13-.09l0-.16,0-.12,0-.24-.07-.48-1.28-8.2,0-.21.28-.07h0A28,28,0,0,1,66,33.25a19.37,19.37,0,0,1,3.55.17,6.2,6.2,0,0,1,1.73.59,9.85,9.85,0,0,1,1.42.9,28.67,28.67,0,0,1,2.47,2c.78.72,1.54,1.47,2.24,2.24a15.68,15.68,0,0,1,3.22,5h0l.08.2-.27.05Zm0-.39,9.38-2-.19.24h0a15.57,15.57,0,0,0-3.4-4.7c-.73-.72-1.5-1.41-2.31-2.08l-2.44-1.93A6.39,6.39,0,0,0,69.2,34.2a18.68,18.68,0,0,0-3.32-.27,27.72,27.72,0,0,0-6.73.94h0l.24-.28,1.31,8.25.14.92a.08.08,0,0,0-.06,0h0l.06,0,.17,0,.34.08.7.14,2.89.62,3,.68,1.49.38.75.19.38.1.19,0,.09,0S70.94,46.06,70.79,46.05Z"/><path class="cls-5" d="M70.2,43.52a75,75,0,0,1,10,.7,73.33,73.33,0,0,1-6.2,4,15.54,15.54,0,0,0-5,4.16.63.63,0,0,1-.37.29,1.7,1.7,0,0,1-.71,0,31.38,31.38,0,0,1-6.55-1.43"/><path class="cls-4" d="M70.2,43.32a75.35,75.35,0,0,1,10,.68h0l.57.09-.35.28a43.63,43.63,0,0,1-4.54,3,39,39,0,0,0-4.38,2.84,12.11,12.11,0,0,0-1.69,1.54,6.79,6.79,0,0,0-.63.81.81.81,0,0,1-.31.24,1.52,1.52,0,0,1-.6.1,9,9,0,0,1-.92-.11c-1.12-.17-2.21-.36-3.27-.58a16.44,16.44,0,0,1-3-.83l.42-.25a19.55,19.55,0,0,0,2.89.67c1,.17,2.1.34,3.17.47.26,0,.6.08.65.07s0,0-.09,0,0,0,0,0l.13-.2.14-.22c.11-.15.21-.3.33-.44a12.19,12.19,0,0,1,1.76-1.66,30.73,30.73,0,0,1,4.49-3l1.22-.69,1.23-.67c.41-.23.8-.47,1.23-.69l1.22-.7.22.36h0a74.25,74.25,0,0,0-9.93-.7Z"/><path class="cls-6" d="M59.89,34.44a80,80,0,0,0-11.74,9.71c-.06.05-.12.11-.11.16s.05.08.1.1q4.45,2.21,9.07,4.78a29,29,0,0,0,4.1,2.09,1.35,1.35,0,0,0,.47.12,1.16,1.16,0,0,0,.8-.33q2.72-2.48,5.29-5.23A6.23,6.23,0,0,1,71,43.58a.6.6,0,0,0,.2-.08c.1-.09,0-.22-.07-.31-3.12-3.31-6.88-6.75-11.27-8.75"/><path class="cls-4" d="M60.05,34.6c-2.28,1.68-4.4,3.45-6.44,5.21-1,.87-2,1.74-3,2.61-.48.42-.95.85-1.41,1.28l-.62.59a.53.53,0,0,0,0-.11.13.13,0,0,0,0-.11s.05,0,.1,0l.34.17,5.5,3,2.83,1.64a33.71,33.71,0,0,0,3,1.65c.27.13.55.26.84.38l.43.18c.14.06.19.06.19,0a.37.37,0,0,0,.19-.08,2.82,2.82,0,0,0,.29-.24l.61-.55L65.32,48l2.32-2.5a8,8,0,0,1,1.4-1.3,5.28,5.28,0,0,1,1-.57,4.79,4.79,0,0,1,.57-.21l.3-.09h0a.2.2,0,0,0-.08.08c0,.08,0,.06,0,0l-.12-.14-.31-.33-.61-.65c-.41-.43-.83-.86-1.26-1.28-.85-.84-1.73-1.66-2.65-2.44A33.25,33.25,0,0,0,63,36.37a16.54,16.54,0,0,0-3.25-1.73l.35-.4a26.66,26.66,0,0,1,6.41,3.92c1,.78,1.9,1.6,2.79,2.45.44.43.88.86,1.31,1.3.22.22.44.43.64.66l.31.33a2.32,2.32,0,0,1,.18.21.43.43,0,0,1,.08.44.59.59,0,0,1-.28.26l-.25.09L71,44a3.34,3.34,0,0,0-.44.17,3.77,3.77,0,0,0-.78.45,10.26,10.26,0,0,0-1.3,1.16c-.86.81-1.94,1.55-2.74,2.36-.4.39-.77.79-1.17,1.18s-.78.77-1.15,1.16l-.57.56a3,3,0,0,1-.32.28,1.21,1.21,0,0,1-.61.23,1.53,1.53,0,0,1-.73-.1l-.48-.18c-.31-.11-.61-.24-.9-.37a31.23,31.23,0,0,1-3.12-1.61l-2.87-1.57c-1.9-1-3.75-1.93-5.57-2.84l-.34-.16a1.28,1.28,0,0,1-.2-.12.19.19,0,0,1-.09-.18.43.43,0,0,1,.11-.2,1.85,1.85,0,0,1,.2-.2l.17-.16.35-.34c.47-.44.94-.88,1.44-1.32,1-.9,2-1.79,3.06-2.67a71.83,71.83,0,0,1,6.76-5.2Z"/><path class="cls-3" d="M77.48,62.55S86,59.83,86.21,60s9.63,8.42,9.63,8.42a16.24,16.24,0,0,1-6.11,3,8.12,8.12,0,0,1-2.23.32,13.63,13.63,0,0,1-2.68-.38c-4-.77-8.06-1.52-11.19-3.08Z"/><path class="cls-4" d="M77.32,62.4a.55.55,0,0,1,.15-.07l.08,0,.15-.06.31-.1.61-.21,1.24-.41,2.48-.79c.83-.25,1.66-.5,2.5-.73l.64-.17.33-.08.17,0h.16a.58.58,0,0,1,.19,0l.18.13.13.11.27.21.53.44L96,68.24l.2.19-.16.13h0a15.3,15.3,0,0,1-4.71,2.68,15.83,15.83,0,0,1-2.87.75,7.51,7.51,0,0,1-1.71,0c-.57,0-1.13-.16-1.66-.26C84,71.54,83,71.3,82,71.05s-2-.48-3-.75a26.77,26.77,0,0,1-5.46-1.92h0l-.18-.09.11-.14Zm.33.3-3.8,5.6-.07-.23h0a25.77,25.77,0,0,0,5.39,1.68c1,.23,2,.43,3,.62l3.07.63a8.29,8.29,0,0,0,2.92.29,14.55,14.55,0,0,0,2.74-.65,15.58,15.58,0,0,0,4.72-2.46h0l0,.33L87.1,61l-1-.82a.11.11,0,0,0,.1,0h-.08l-.16,0-.31.08-.63.16c-.83.22-1.67.46-2.5.71L80,61.94l-1.24.4-.61.2-.31.1-.16,0-.07,0S77.55,62.77,77.65,62.7Z"/><path class="cls-5" d="M80.16,64.37a53.53,53.53,0,0,1-6.44,3.82c0-1.76.23-3.62.25-5.53a11.48,11.48,0,0,0-1.3-5.82.65.65,0,0,1-.13-.45.83.83,0,0,1,.35-.42,14.17,14.17,0,0,1,4.92-2.7"/><path class="cls-4" d="M80.33,64.53a51.77,51.77,0,0,1-6.47,3.8h0l-.39.18v-.31c0-1.3.11-2.64.2-4a18.47,18.47,0,0,0-.16-4.26,9.65,9.65,0,0,0-.62-2.09,8.35,8.35,0,0,0-.5-1,.65.65,0,0,1-.09-.37.67.67,0,0,1,.18-.43,4.36,4.36,0,0,1,.55-.48,22,22,0,0,1,2.24-1.51,9,9,0,0,1,2.51-1l.06.49a8.9,8.9,0,0,0-2.28,1.11c-.72.47-1.43,1-2.1,1.51a3.49,3.49,0,0,0-.39.34s0,0,0-.07,0,0,0,.05l.14.23a2.2,2.2,0,0,1,.15.26,5.36,5.36,0,0,1,.28.53,10.19,10.19,0,0,1,.7,2.26,15.9,15.9,0,0,1,.2,4.44c0,.35-.07.7-.12,1l-.16,1c-.06.33-.1.66-.17,1l-.18,1L73.59,68h0A51.81,51.81,0,0,0,80,64.21Z"/><path class="cls-6" d="M95.36,68.75A31.7,31.7,0,0,0,95.6,55a.44.44,0,0,0-.11-.25.36.36,0,0,0-.21-.09A127,127,0,0,0,82.66,53a19.65,19.65,0,0,0-4.85.24.76.76,0,0,0-.39.16.77.77,0,0,0-.06.78l2.21,7.27a3.91,3.91,0,0,1,0,3.21.2.2,0,0,0,0,.15c0,.1.16.16.29.2a113.82,113.82,0,0,0,15.52,3.71"/><path class="cls-4" d="M95.09,68.64a33.63,33.63,0,0,0,.62-6.94c0-1.25-.13-2.54-.26-3.84-.07-.66-.16-1.32-.27-2L95,54.94a.34.34,0,0,0,.08.14.54.54,0,0,0,.19.14l-.15,0-.5-.1-7.91-1.31-3.84-.36a24.33,24.33,0,0,0-3.72,0c-.31,0-.61.07-.91.12l-.44.09a.39.39,0,0,0-.17.06.58.58,0,0,0,0,.2,3.13,3.13,0,0,0,.1.38l.27.85,1,3.33,1,3.24a5.92,5.92,0,0,1,.29,1.68,2.9,2.9,0,0,1-.12.87,2.47,2.47,0,0,1-.17.42l-.12.19s0,0,0,0a.13.13,0,0,0,0-.1c0-.06-.05,0,0,0l.19.06.47.12.93.25,1.88.52c1.28.36,2.57.72,3.88,1.06s2.65.7,4,1a32.49,32.49,0,0,0,4.1.77l0,.46a61.74,61.74,0,0,1-8.26-1.71c-1.34-.32-2.65-.66-4-1l-1.91-.49-.94-.24-.47-.12-.28-.08a.79.79,0,0,1-.41-.3.41.41,0,0,1,0-.32.68.68,0,0,1,.08-.17l.09-.15a1.27,1.27,0,0,0,.13-.32,2.32,2.32,0,0,0,.1-.7,7.61,7.61,0,0,0-.24-1.52c-.23-1.07-.28-2.21-.6-3.3-.16-.55-.35-1.09-.53-1.64s-.36-1.1-.57-1.65l-.3-.83a2.65,2.65,0,0,1-.14-.45.77.77,0,0,1,.07-.56.8.8,0,0,1,.51-.34l.47-.12c.31-.07.62-.13.94-.17a22.86,22.86,0,0,1,3.79-.1l3.83.27q3.9.42,7.89,1.16l.51.1a1.75,1.75,0,0,1,.31.08.77.77,0,0,1,.31.21,1,1,0,0,1,.16.3,1.17,1.17,0,0,1,.06.31l.05.26.09.52c.11.69.21,1.38.28,2.06a33,33,0,0,1,.2,3.93,25.1,25.1,0,0,1-1,7Z"/><path class="cls-3" d="M58.57,84.48s11.18-3.57,11.48-3.42,12.66,11.1,12.66,11.1a21.27,21.27,0,0,1-8,3.92,10.69,10.69,0,0,1-2.93.42A17.09,17.09,0,0,1,68.22,96c-5.28-1-10.6-2-14.72-4Z"/><path class="cls-4" d="M58.4,84.33c.15-.08.14,0,.18-.08l.1,0,.2-.07.41-.14.81-.27,1.62-.54,3.26-1c1.09-.33,2.19-.66,3.29-1l.84-.22.43-.1.22,0H70a.58.58,0,0,1,.19,0l.22.16.18.14.35.29.7.58L82.89,92l.21.19-.17.13h0a19.88,19.88,0,0,1-6.19,3.48c-.59.2-1.19.39-1.81.56a13.7,13.7,0,0,1-2,.4,9.49,9.49,0,0,1-2.2,0c-.74-.08-1.46-.22-2.16-.36-1.4-.27-2.76-.57-4.11-.9s-2.68-.61-4-1a35.23,35.23,0,0,1-7.18-2.49h0L53.17,92l.11-.15Zm.33.3-5,7.39-.07-.23h0A34.23,34.23,0,0,0,60.77,94c1.28.3,2.6.58,3.93.84s2.7.54,4,.84a11.6,11.6,0,0,0,3.91.38,19.11,19.11,0,0,0,3.62-.87A20.3,20.3,0,0,0,82.49,92h0l0,.33L71.27,82.36l-.69-.57-.65-.53a.1.1,0,0,0,.09,0H69.9l-.2,0-.42.09-.83.22c-1.1.29-2.19.61-3.29.94Z"/><path class="cls-5" d="M62.09,86.87a67.92,67.92,0,0,1-8.47,5c-.07-2.31.3-4.75.33-7.26A15.15,15.15,0,0,0,52.24,77a.83.83,0,0,1-.17-.59,1.12,1.12,0,0,1,.46-.56c1.6-1.28,4.49-3.2,6.47-3.56"/><path class="cls-4" d="M62.26,87a68.24,68.24,0,0,1-8.5,5h0l-.38.19v-.32c0-1.7.14-3.46.26-5.26A24.12,24.12,0,0,0,53.42,81a13,13,0,0,0-.82-2.77,10.6,10.6,0,0,0-.66-1.3,1,1,0,0,1-.12-.46A.88.88,0,0,1,52,76a5.45,5.45,0,0,1,.72-.62,28.93,28.93,0,0,1,2.93-2A11,11,0,0,1,59,72l.05.48a11.68,11.68,0,0,0-3,1.43c-1,.62-1.91,1.27-2.8,2a5.41,5.41,0,0,0-.54.47c0,.06,0,0,0,0a.44.44,0,0,0,.06.13l.18.31a3.79,3.79,0,0,1,.2.34c.12.23.24.46.35.69a13.48,13.48,0,0,1,.9,2.94,21,21,0,0,1,.24,5.8c0,.46-.07.91-.13,1.36l-.19,1.33-.37,2.57-.38-.13h0a69.48,69.48,0,0,0,8.43-5Z"/><path class="cls-6" d="M82.08,92.66c1.43-5,1.51-11.89.31-18.16a.58.58,0,0,0-.14-.32.5.5,0,0,0-.28-.12q-8.48-1.5-16.59-2.12a26.62,26.62,0,0,0-6.38.32,1.06,1.06,0,0,0-.52.22c-.27.26-.18.68-.08,1q1.5,4.89,2.91,9.57c.42,1.42.83,3,0,4.22a.32.32,0,0,0-.08.2c0,.14.22.22.39.26,6.26,1.79,13.56,4,20.41,4.91"/><path class="cls-4" d="M81.82,92.55a41.2,41.2,0,0,0,.9-9.14c0-1.65-.16-3.35-.33-5.07-.09-.87-.21-1.75-.34-2.64l-.23-1.26s0,0,.06.1a.45.45,0,0,0,.14.1l-.23,0-.66-.14-10.4-1.66-5-.45a30.94,30.94,0,0,0-4.91,0c-.4,0-.8.09-1.2.16l-.58.12c-.19,0-.26.09-.28.13a.42.42,0,0,0,0,.32,3.13,3.13,0,0,0,.14.52l.35,1.12,1.35,4.39,1.3,4.26a8,8,0,0,1,.38,2.18,3.92,3.92,0,0,1-.15,1.12,3.49,3.49,0,0,1-.22.53l-.15.25s0,0,0,0a.11.11,0,0,0,0-.07l2.15.57,2.49.68c1.68.47,3.38.94,5.1,1.38s3.5.93,5.28,1.34a48.43,48.43,0,0,0,5.4,1l0,.46A85.88,85.88,0,0,1,71.26,90.6c-1.75-.43-3.48-.87-5.17-1.34l-2.51-.67-1.24-.32-.61-.16a2.26,2.26,0,0,1-.35-.09.82.82,0,0,1-.46-.33.46.46,0,0,1,0-.34,1.16,1.16,0,0,1,.09-.19l.12-.21a4.07,4.07,0,0,0,.18-.44,3.39,3.39,0,0,0,.12-1,9.9,9.9,0,0,0-.34-2c-.33-1.4-.49-2.88-.91-4.31-.21-.72-.46-1.44-.68-2.16s-.48-1.46-.74-2.19l-.38-1.1a4.24,4.24,0,0,1-.18-.57,1.07,1.07,0,0,1,.09-.71,1,1,0,0,1,.64-.41l.61-.15q.61-.14,1.23-.21a30.57,30.57,0,0,1,5-.11l5,.37c3.41.37,6.88.89,10.38,1.53l.66.13a2.85,2.85,0,0,1,.4.1.79.79,0,0,1,.34.24,1,1,0,0,1,.18.33,3.88,3.88,0,0,1,.09.39l.06.35.12.68c.14.91.27,1.81.37,2.7a48.3,48.3,0,0,1,.27,5.17,33,33,0,0,1-1.27,9.17Z"/></svg>