<svg id="Capa_1" data-name="Capa 1" xmlns="http://www.w3.org/2000/svg" viewBox="0 0 139.98 139.98"><defs><style>.cls-1{opacity:0.4;}.cls-2{fill:#2e6649;}.cls-3{fill:#1c1d1b;}.cls-4{fill:#f1b941;}.cls-5{fill:#dd5652;}.cls-6{fill:#e8472b;}</style></defs><g class="cls-1"><path class="cls-2" d="M11.65,37.37c5.91-12.57,18.7-19.64,30.18-25.1C59.46,4,78.2,2.33,97.67,13.22c16,8.91,24.51,25.46,29.73,41.26s7.14,30.81-.68,46.29C111.3,132,78.11,131.43,44.6,122.61,10.46,113.46-3.09,69.37,11.65,37.37Z"/></g><path class="cls-3" d="M106.54,74.7c.63,3.23.31,9.53-3.54,10.76a4.32,4.32,0,0,1-3.72-.84,9.58,9.58,0,0,1-1.4-.09L96,84.39a1.53,1.53,0,0,1-1.92.39c-.22-.11-.45-.2-.66-.31-11.76,1.16-23.06,2.84-34.27,7.46-9.87,4.07-16.25,16.79-28,15.68a2.26,2.26,0,0,1-.31-.1,1.87,1.87,0,0,1-2.32-1.71C28,91.37,32.14,75.68,37.87,62.56c4.22-9.67,11.92-24.47,24.22-24.27-.79-.81-1.59-1.62-2.37-2.45a.94.94,0,0,1-.21-1C56.88,31,55.6,23.75,62,23.17c5.94-.55,10.39,6.47,13.4,10.63C85,47,103.26,57.6,106.54,74.7Zm-3.1,6C105.83,67.42,90.78,55,82.57,46.46c-3.18-3.32-6.62-6.55-9.31-10.29A51.14,51.14,0,0,0,68,29.48c-1.18-1.16-2.68-2.92-4.4-3.21-4,.2-4.5,2.89-1.43,8a1.17,1.17,0,0,1,.23,1.12,102.21,102.21,0,0,1,24.18,27.4c2.6,4.25,5.18,8.56,8.13,12.58C95.69,76.79,102.42,86.35,103.44,80.69Zm-10.37-.15c.72,0,1.46,0,2.16.11l-1.47-1.9c-4.16-5.38-7.6-11.24-11.25-17-5.12-8-11.7-14.69-18.32-21.39a1.81,1.81,0,0,1-.31.09c-6.63.87-11.72,5.31-15.67,10.92,11.68,5.37.63,24.94-9,18.61l-.09.23C35.67,80,32.58,90.53,32.08,101a118.59,118.59,0,0,1,8.84-9,.88.88,0,0,1-.2-.12c-4-3.58-3-9.8,1-13,4.39-3.5,9.54-1.52,12.39,2.79a1.94,1.94,0,0,1,.21.47C66,75.51,79.24,73.31,93.07,80.54Zm-8.15.66c-9.34-2.63-18.82-2.14-28,3.13-9.42,5.38-17,13-24,21.15,7.22-1.42,12.73-7.88,18.25-12.31C55,90,59.4,88.32,64.1,86.81,70.23,84.84,77.63,82.38,84.92,81.2ZM51.67,83.77a2.67,2.67,0,0,1-.4-.42c-1.85-2.69-5.22-4.12-7.85-1.49s-2.4,5.71-1,8.76a.29.29,0,0,1,0,.1A77.15,77.15,0,0,1,51.67,83.77Zm-2.8-19.5c2.25-4.17,1.27-7.72-2.39-10.23a82.44,82.44,0,0,0-6.57,14.08C43.38,70,47,67.8,48.87,64.27Z"/><path class="cls-4" d="M82.57,46.46c8.21,8.56,23.26,21,20.87,34.23-1,5.66-7.75-3.9-8.78-5.29-3-4-5.53-8.33-8.13-12.58a102.21,102.21,0,0,0-24.18-27.4,1.17,1.17,0,0,0-.23-1.12c-3.07-5.14-2.59-7.83,1.43-8,1.72.29,3.22,2.05,4.4,3.21a51.14,51.14,0,0,1,5.31,6.69C76,39.91,79.39,43.14,82.57,46.46Z"/><path class="cls-5" d="M95.23,80.65c-.7-.06-1.44-.09-2.16-.11-13.83-7.23-27-5-38.79,1.65a1.94,1.94,0,0,0-.21-.47c-2.85-4.31-8-6.29-12.39-2.79-4,3.17-5,9.39-1,13a.88.88,0,0,0,.2.12,118.59,118.59,0,0,0-8.84,9c.5-10.45,3.59-21,7.05-30.73l.09-.23c9.62,6.33,20.67-13.24,9-18.61,3.95-5.61,9-10,15.67-10.92a1.81,1.81,0,0,0,.31-.09c6.62,6.7,13.2,13.35,18.32,21.39,3.65,5.72,7.09,11.58,11.25,17ZM65.61,73.77c6,1,11.94-4.82,11.18-10.75s-7.86-11.44-13.58-8.34a1.29,1.29,0,0,0-.58,1.52,7,7,0,0,0-5.55,7.69C57.45,68.46,61,73,65.61,73.77Z"/><path class="cls-3" d="M76.79,63c.76,5.93-5.23,11.73-11.18,10.75C61,73,57.45,68.46,57.08,63.89a7,7,0,0,1,5.55-7.69,1.29,1.29,0,0,1,.58-1.52C68.93,51.58,76,57.18,76.79,63ZM65.24,70.23c3.84,1.17,8.83-2.41,8.28-6.62-.52-4-3.76-6-7.31-6.39a.64.64,0,0,1-.4.23c-3.39.73-5.86,2.74-5.37,6.44C60.78,66.46,62.64,69.45,65.24,70.23Z"/><path class="cls-4" d="M56.9,84.33c9.2-5.27,18.68-5.76,28-3.13-7.29,1.18-14.69,3.64-20.82,5.61-4.7,1.51-9.12,3.23-13,6.36-5.52,4.43-11,10.89-18.25,12.31C39.86,97.31,47.48,89.71,56.9,84.33Z"/><path class="cls-6" d="M73.52,63.61c.55,4.21-4.44,7.79-8.28,6.62-2.6-.78-4.46-3.77-4.8-6.34-.49-3.7,2-5.71,5.37-6.44a.64.64,0,0,0,.4-.23C69.76,57.65,73,59.59,73.52,63.61Z"/><path class="cls-6" d="M51.27,83.35a2.67,2.67,0,0,0,.4.42,77.15,77.15,0,0,0-9.26,7,.29.29,0,0,0,0-.1c-1.36-3.05-1.46-6.27,1-8.76S49.42,80.66,51.27,83.35Z"/><path class="cls-6" d="M46.48,54c3.66,2.51,4.64,6.06,2.39,10.23-1.88,3.53-5.49,5.69-9,3.85A82.44,82.44,0,0,1,46.48,54Z"/></svg>