<svg id="Capa_1" data-name="Capa 1" xmlns="http://www.w3.org/2000/svg" viewBox="0 0 139.98 139.98"><defs><style>.cls-1{opacity:0.4;}.cls-2{fill:#f2cadb;}.cls-3{fill:#f6f6f6;}.cls-4{fill:#e8472b;}.cls-5{fill:#f4e642;}.cls-6{fill:#1c1d1b;}.cls-7{fill:#94b022;}.cls-8{fill:#f1b941;}</style></defs><g class="cls-1"><path class="cls-2" d="M134.14,83.68c-2.44,13.63-12.52,24.21-21.69,32.94-13.94,13.45-30.48,21-51.18,16.63-17.16-3.69-29.88-17.51-39.52-31.72S5.46,72.6,8,54.7C13.15,19,45.69,11,80.92,11,116.66,11.11,140.41,49.32,134.14,83.68Z"/></g><path class="cls-3" d="M109.67,75c-.36.29-.75.55-1.1.84,0-2.4-2-4.88-3.58-6.53a15.42,15.42,0,0,0-5.85-3.78l3-.66a20.58,20.58,0,0,1,4.62,4.87C107.85,71.4,108.62,73.28,109.67,75Z"/><path class="cls-3" d="M112.32,73.07c-.46.32-.93.61-1.38,1a18.38,18.38,0,0,0-7.18-9.53c.61-.12,1.19-.23,1.78-.37a.58.58,0,0,0,.22.46,23.67,23.67,0,0,1,4.45,4.71A31.88,31.88,0,0,1,112.32,73.07Z"/><path class="cls-3" d="M83.37,71.56C82.7,72,82,71,82.52,70.45a1.53,1.53,0,0,1,.16-.11l-1.13-.7a.82.82,0,0,1-.25-.24l-2.39.44a15.52,15.52,0,0,1,3.9,4.61c1,1.89,2.5,4.89,1.89,7.18,1.1,0,2.22-.06,3.32-.17h.09C87.09,79.26,84.61,70.73,83.37,71.56Z"/><path class="cls-4" d="M86.51,68.36c-1,.22-3.3.65-4.34.86a7.49,7.49,0,0,1,1.32.93c.2.17.87.82.86,1C86.72,73.28,90,78.59,90,81,94.64,79,88.91,71.31,86.51,68.36Z"/><path class="cls-3" d="M40.65,68.73c-2.26.21-4.47,2.72-5.83,4.32a13.47,13.47,0,0,0-3,6.93,15.29,15.29,0,0,1-2-1.48.63.63,0,0,0,.51-.66A12.71,12.71,0,0,1,31.92,70c1-1.71,2.6-2.4,4.11-3.24A46.33,46.33,0,0,0,40.65,68.73Z"/><path class="cls-5" d="M112.23,76.48c1.16,3.76.21,6.16-3.09,8.23-1-1.11-2-2.16-3-3.14a1.05,1.05,0,0,0,.25-.18A60.23,60.23,0,0,1,112.23,76.48Z"/><path class="cls-5" d="M89.92,67.61c6.17,2.08,11.56,5.64,13.77,11.87a28,28,0,0,0-10.06-5.22.76.76,0,0,0-.26,0,18.38,18.38,0,0,0-4.1-6.49C89.49,67.72,89.7,67.67,89.92,67.61Z"/><path class="cls-5" d="M33.07,83.68c-2.5.48-4.94.92-7.31,1.3.12-2.11.35-4.2.53-6.3A17.44,17.44,0,0,0,33.07,83.68Z"/><path class="cls-4" d="M42,70.12a.84.84,0,0,1,.44-.12c.16-.17.31-.35.46-.53-.57-.17-1.15-.33-1.71-.53a.57.57,0,0,1,0,.55c-1,1.79-3.46,2.72-4.88,4.24a15.75,15.75,0,0,0-3.73,6.74,24.21,24.21,0,0,0,3.25,1.45C36,77.37,38,72.43,42,70.12Z"/><path class="cls-5" d="M66.72,71.48c-7.62.62-16.36-.69-23.46-2.58,0,0-.22.37-.24.39a6.4,6.4,0,0,1-.55.71c0,.06.9,1.37.87,1.43-2.11,4-4.75,6.59-4.71,11.17,13-2.51,26.76-4.87,38.95-1.92C75.85,75.73,71.86,72.86,66.72,71.48Z"/><path class="cls-6" d="M117.84,71.11a1.41,1.41,0,0,1-.51,1.91c-.85.52-1.68,1.07-2.49,1.61a.73.73,0,0,1-.34.44,8.73,8.73,0,0,1,.74,6.52,8.84,8.84,0,0,1-2.48,8.87c3.49,13.59-39.45,13.25-45.23,13.13C56.75,103.36,45,103,34.7,99.28c-1.36-.49-8.61-4.85-7-7.1-2.11-.53-3.83-2.41-4.71-5.56a.52.52,0,0,1,.23-.61,22.4,22.4,0,0,1,2.59-8,8.54,8.54,0,0,1-1-2.25c-1.5-5.06,1.17-9.17,4.71-12.57a1,1,0,0,1-.72-1c2.83-17.88,28-23.29,42.8-23.12,9.08.09,18.64,1.4,26.8,5.58,5.45,2.76,13.49,8.27,13.58,15.18a1.33,1.33,0,0,1-.11.54C114.34,63.62,116,67.4,117.84,71.11Zm-3.79.75c.26-.18.52-.38.79-.55-1.41-2.93-2.81-5.82-4.45-8.64a1.53,1.53,0,0,1-1,.66c-.73.14-1.5.31-2.23.46A22.63,22.63,0,0,1,114.05,71.86Zm-4.91,12.85c3.3-2.07,4.25-4.47,3.09-8.23a60.23,60.23,0,0,0-5.84,4.91,1.05,1.05,0,0,1-.25.18C107.18,82.55,108.17,83.6,109.14,84.71Zm2.8,3.12a7.18,7.18,0,0,0,.85-2.48,14.46,14.46,0,0,1-3.22,2.29,1.35,1.35,0,0,1-1.67-.21c-3.85-4.5-8.35-8.57-13.89-10.8a14.11,14.11,0,0,1-.22,5.87,1.32,1.32,0,0,1-.94.94,66.29,66.29,0,0,1-13.29.93,1.33,1.33,0,0,1-1.29-1,.45.45,0,0,0,0-.08c-3-.15-5.92-.28-8.81-.32,1.85,4.31,5,4.78,8.61,2.37a1.29,1.29,0,0,1,1-.14c3.29.9,4.32,1.51,8,1a1.27,1.27,0,0,1,1.32.54c2.61,3.72,4.83.49,6.11-.92a1,1,0,0,1,1.52.34,13,13,0,0,0,3,2.43c2.29,1.1,3-1.32,3.68-2.72a1.19,1.19,0,0,1,2,0c.9,1.42,2.69,3.33,4.43,3.61,0,0,0,0,0,0-.6-1.53,1.68-2.5,2.6-1.33Zm-1-13.81c.45-.34.92-.63,1.38-1a31.88,31.88,0,0,0-2.11-3.78,23.67,23.67,0,0,0-4.45-4.71.58.58,0,0,1-.22-.46c-.59.14-1.17.25-1.78.37A18.38,18.38,0,0,1,110.94,74Zm-2.37,1.82c.35-.29.74-.55,1.1-.84-1-1.72-1.82-3.6-3-5.26a20.58,20.58,0,0,0-4.62-4.87l-3,.66A15.42,15.42,0,0,1,105,69.31C106.54,71,108.6,73.44,108.57,75.84Zm-.89.73s-.06,0-.07,0c-1.62-1.7-2.14-4.29-3.75-6.11a17.48,17.48,0,0,0-5.56-4.23.38.38,0,0,1-.23-.41l-4.41,1c5.61,2,10.13,5.61,12.37,11.25C106.58,77.52,107.13,77.05,107.68,76.57Zm1.15-17c-1.76-2.66-2.89-5.43-5.49-7.64a32.76,32.76,0,0,0-7.11-4.59c.12,3.23-3,8.29-4.1,9.77-.7,1-2.61,1.12-2.87-.37-.93-5.13-3.46-8.87-7.11-12.47a1.14,1.14,0,0,1-.29-1.09,64.61,64.61,0,0,0-8.21-.78A16.53,16.53,0,0,1,76.84,50a11.38,11.38,0,0,1-3.18,9.86,1.4,1.4,0,0,1-2.32-.61c-1.81-6.18-5.9-10.92-10.54-15.21a.84.84,0,0,1-.26-.86,50.29,50.29,0,0,0-16,4.94c2.8,4.5,6,8.73,8.89,13.17a10.8,10.8,0,0,0-.32-7.36c-1-2.45-2.83-4.43-3.7-6.9a.87.87,0,0,1,1.28-1c6,3.71,7.19,12.82,4.11,18.64a1.3,1.3,0,0,1-2.21,0c-3-5.34-6.87-10.25-9.47-15.78A30.86,30.86,0,0,0,31,61.52a55.7,55.7,0,0,0,6,2.59,1.93,1.93,0,0,1,.34,0,.91.91,0,0,1,.62.35C61.57,72.47,84.46,62,108.83,59.55Zm.41,32.37c-2.09,0-4-1.62-5.39-3.31-2.46,3.7-5.43,2.37-8.46-.65-.92,1.85-2.48,4.07-4.57,3.66-1.62-.31-3.58-3.12-4.92-2.92a15.3,15.3,0,0,1-3.81.32c-2.14-.22-2.79-1.15-5,.06a7.28,7.28,0,0,1-4,.63c-3.35-.25-4.86-3.67-5.69-6.43a1.27,1.27,0,0,1,0-.32c-1.8,0-3.59,0-5.38.05a1,1,0,0,1,.24,1.62c-1.33,1.21-3.45,3.79-5.35,4.13a5.72,5.72,0,0,1-4.42-1.24c-1.13,2.06-2.79,3.78-5.38,3.5a4.84,4.84,0,0,1-4-3.52c-.93,2.22-2.22,4.56-4.66,5.31-1.81.57-3.41-1.25-4.56-2.55a8.57,8.57,0,0,1-3.7,1.94c1,4.23,8.59,4.82,12.25,5.38a178.49,178.49,0,0,0,27.7,2.11C74.49,99.69,106.54,99.6,109.24,91.92Zm-5.55-12.44c-2.21-6.23-7.6-9.79-13.77-11.87-.22.06-.43.11-.65.15a18.38,18.38,0,0,1,4.1,6.49.76.76,0,0,1,.26,0A28,28,0,0,1,103.69,79.48ZM92.55,49.05c.23-1,.2-2.07.44-3.06a58.85,58.85,0,0,0-7.42-2.13,20.68,20.68,0,0,1,5.74,8.51A16,16,0,0,0,92.55,49.05ZM90,81c4.68-2-1-9.7-3.45-12.65-2.53.54-5.06,1-7.6,1.48a15.52,15.52,0,0,1,3.9,4.61c1,1.89,2.5,4.89,1.89,7.18,1.1,0,2.22-.06,3.32-.17h.09c-1-2.19-3.5-10.72-4.74-9.89C82.7,72,82,71,82.52,70.45,85.5,67.61,90,77.6,90,81Zm-8.74.65h1.72C82.1,79.75,82,77.38,81,75.5a18.62,18.62,0,0,0-4.28-5.29c-1.57.26-3.15.5-4.72.7a15.17,15.17,0,0,1,7.64,7.17C80,78.71,80.34,81.66,81.22,81.66Zm-3.64-1c-1.73-5-5.72-7.82-10.86-9.2-8.81.72-17.46.24-25.5-2.54a.57.57,0,0,1,0,.55c-1,1.79-3.46,2.72-4.88,4.24a15.75,15.75,0,0,0-3.73,6.74,24.21,24.21,0,0,0,3.25,1.45C36,77.37,38,72.43,42,70.12a1,1,0,0,1,1.31,1.31c-2.11,4-4.75,6.59-4.71,11.17C51.61,80.09,65.39,77.73,77.58,80.68ZM73,56a8.81,8.81,0,0,0,.63-7c-.81-2.55-2.56-4.3-3.63-6.62-2.52.06-5.07.26-7.6.57A34.8,34.8,0,0,1,73,56ZM58.33,84.69a11.46,11.46,0,0,1,2.4-1.64,100.17,100.17,0,0,0-11.49,1.14c-8.15,1.3-16.28,3-24.52,3.51.93,1.85,2.44,3.83,4.74,3.11a10.22,10.22,0,0,0,3.83-2.37.88.88,0,0,1,1.35.18c1.44,2.57,4.39,3.29,6.09.49.39-.7.84-1.41,1.3-2.08a.61.61,0,0,1,1,.12.35.35,0,0,1,.47-.14c.8.49,1.56,1.12,2.39,1.52,2.65,1.28,4-1.13,4.83-3.27a1.29,1.29,0,0,1,2.13-.55C55.28,86.59,56.26,86.43,58.33,84.69ZM34.82,73.05c1.36-1.6,3.57-4.11,5.83-4.32a46.33,46.33,0,0,1-4.62-2c-1.51.84-3.09,1.53-4.11,3.24a12.71,12.71,0,0,0-1.62,7.83.63.63,0,0,1-.51.66,15.29,15.29,0,0,0,2,1.48A13.47,13.47,0,0,1,34.82,73.05Zm-1.36-7.66c-.88-.5-1.74-1-2.6-1.62-2.7,3.27-5.91,8.37-3,12.56a15.56,15.56,0,0,0,1,1.24c-.4-2.89-.28-6.06,1.33-8.58A13.23,13.23,0,0,1,33.46,65.39ZM25.76,85c2.37-.38,4.81-.82,7.31-1.3a17.44,17.44,0,0,1-6.78-5C26.11,80.78,25.88,82.87,25.76,85Z"/><path class="cls-4" d="M114.84,71.31c-.27.17-.53.37-.79.55a22.63,22.63,0,0,0-6.9-8.07c.73-.15,1.5-.32,2.23-.46a1.53,1.53,0,0,0,1-.66C112,65.49,113.43,68.38,114.84,71.31Z"/><path class="cls-7" d="M112.79,85.35a7.18,7.18,0,0,1-.85,2.48l-.2.29c-.92-1.17-3.2-.2-2.6,1.33,0,0,0,0,0,0-1.74-.28-3.53-2.19-4.43-3.61a1.19,1.19,0,0,0-2,0c-.67,1.4-1.39,3.82-3.68,2.72a13,13,0,0,1-3-2.43,1,1,0,0,0-1.52-.34c-1.28,1.41-3.5,4.64-6.11.92A1.27,1.27,0,0,0,87,86.2c-3.65.52-4.68-.09-8-1a1.29,1.29,0,0,0-1,.14c-3.65,2.41-6.76,1.94-8.61-2.37,2.89,0,5.81.17,8.81.32a.45.45,0,0,1,0,.08,1.33,1.33,0,0,0,1.29,1,66.29,66.29,0,0,0,13.29-.93,1.32,1.32,0,0,0,.94-.94A14.11,14.11,0,0,0,94,76.63c5.54,2.23,10,6.3,13.89,10.8a1.35,1.35,0,0,0,1.67.21A14.46,14.46,0,0,0,112.79,85.35Z"/><path class="cls-4" d="M107.61,76.53s.06,0,.07,0c-.55.48-1.1,1-1.65,1.45-2.24-5.64-6.76-9.26-12.37-11.25l4.41-1a.38.38,0,0,0,.23.41,17.48,17.48,0,0,1,5.56,4.23C105.47,72.24,106,74.83,107.61,76.53Z"/><path class="cls-8" d="M103.34,51.91c2.6,2.21,3.73,5,5.49,7.64C84.46,62,61.57,72.47,38,64.46a.91.91,0,0,0-.62-.35,1.93,1.93,0,0,0-.34,0,55.7,55.7,0,0,1-6-2.59A30.86,30.86,0,0,1,43.14,48.93c2.6,5.53,6.5,10.44,9.47,15.78a1.3,1.3,0,0,0,2.21,0c3.08-5.82,1.9-14.93-4.11-18.64a.87.87,0,0,0-1.28,1c.87,2.47,2.69,4.45,3.7,6.9a10.8,10.8,0,0,1,.32,7.36c-2.89-4.44-6.09-8.67-8.89-13.17a50.29,50.29,0,0,1,16-4.94.84.84,0,0,0,.26.86c4.64,4.29,8.73,9,10.54,15.21a1.4,1.4,0,0,0,2.32.61A11.38,11.38,0,0,0,76.84,50a16.53,16.53,0,0,0-3.19-7.63,64.61,64.61,0,0,1,8.21.78,1.14,1.14,0,0,0,.29,1.09c3.65,3.6,6.18,7.34,7.11,12.47.26,1.49,2.17,1.36,2.87.37,1.07-1.48,4.22-6.54,4.1-9.77A32.76,32.76,0,0,1,103.34,51.91Z"/><path class="cls-8" d="M103.85,88.61c1.4,1.69,3.3,3.27,5.39,3.31-2.7,7.68-34.75,7.77-39.16,7.77a178.49,178.49,0,0,1-27.7-2.11C38.72,97,31.14,96.43,30.13,92.2a8.57,8.57,0,0,0,3.7-1.94c1.15,1.3,2.75,3.12,4.56,2.55,2.44-.75,3.73-3.09,4.66-5.31a4.84,4.84,0,0,0,4,3.52c2.59.28,4.25-1.44,5.38-3.5a5.72,5.72,0,0,0,4.42,1.24c1.9-.34,4-2.92,5.35-4.13A1,1,0,0,0,62,83C63.77,83,65.56,83,67.36,83a1.27,1.27,0,0,0,0,.32c.83,2.76,2.34,6.18,5.69,6.43a7.28,7.28,0,0,0,4-.63c2.24-1.21,2.89-.28,5-.06a15.3,15.3,0,0,0,3.81-.32c1.34-.2,3.3,2.61,4.92,2.92,2.09.41,3.65-1.81,4.57-3.66C98.42,91,101.39,92.31,103.85,88.61Z"/><path class="cls-8" d="M93,46c-.24,1-.21,2-.44,3.06a16,16,0,0,1-1.24,3.32,20.68,20.68,0,0,0-5.74-8.51A58.85,58.85,0,0,1,93,46Z"/><path class="cls-4" d="M82.94,81.66H81.22c-.88,0-1.27-3-1.58-3.58A15.17,15.17,0,0,0,72,70.91c1.57-.2,3.15-.44,4.72-.7A18.62,18.62,0,0,1,81,75.5C82,77.38,82.1,79.75,82.94,81.66Z"/><path class="cls-8" d="M73.65,49A8.81,8.81,0,0,1,73,56a34.8,34.8,0,0,0-10.6-13c2.53-.31,5.08-.51,7.6-.57C71.09,44.7,72.84,46.45,73.65,49Z"/><path class="cls-7" d="M60.73,83.05a11.46,11.46,0,0,0-2.4,1.64c-2.07,1.74-3,1.9-5.43,0a1.29,1.29,0,0,0-2.13.55c-.88,2.14-2.18,4.55-4.83,3.27-.83-.4-1.59-1-2.39-1.52a.35.35,0,0,0-.47.14A.61.61,0,0,0,42,87c-.46.67-.91,1.38-1.3,2.08-1.7,2.8-4.65,2.08-6.09-.49a.88.88,0,0,0-1.35-.18,10.22,10.22,0,0,1-3.83,2.37c-2.3.72-3.81-1.26-4.74-3.11,8.24-.55,16.37-2.21,24.52-3.51A100.17,100.17,0,0,1,60.73,83.05Z"/><path class="cls-4" d="M30.86,63.77c.86.58,1.72,1.12,2.6,1.62a13.23,13.23,0,0,0-3.3,3.6c-1.61,2.52-1.73,5.69-1.33,8.58a15.56,15.56,0,0,1-1-1.24C25,72.14,28.16,67,30.86,63.77Z"/></svg>